Rosario-Regular.ufo
<glyph name="quotedbl" format="2">
  <advance width="367"/>
  <unicode hex="0022"/>
  <note>
quotedbl
</note>
  <outline>
    <contour>
      <point x="96" y="441" type="curve"/>
      <point x="125" y="441" type="line"/>
      <point x="152" y="556" type="line"/>
      <point x="152" y="734" type="line"/>
      <point x="69" y="734" type="line"/>
      <point x="69" y="556" type="line" smooth="yes"/>
      <point x="69" y="554"/>
      <point x="94" y="450"/>
    </contour>
    <contour>
      <point x="242" y="441" type="line"/>
      <point x="271" y="441" type="line"/>
      <point x="299" y="556" type="line"/>
      <point x="299" y="734" type="line"/>
      <point x="215" y="734" type="line"/>
      <point x="215" y="556" type="line"/>
    </contour>
  </outline>
</glyph>
<glyph name="parenleft" format="2">
  <advance width="306"/>
  <unicode hex="0028"/>
  <note>
parenleft
</note>
  <outline>
    <contour>
      <point x="218" y="-138" type="curve"/>
      <point x="285" y="-129" type="line"/>
      <point x="181" y="-1"/>
      <point x="132" y="138"/>
      <point x="132" y="302" type="curve" smooth="yes"/>
      <point x="132" y="466"/>
      <point x="181" y="605"/>
      <point x="285" y="733" type="curve"/>
      <point x="218" y="743" type="line"/>
      <point x="111" y="620"/>
      <point x="44" y="466"/>
      <point x="44" y="302" type="curve" smooth="yes"/>
      <point x="44" y="138"/>
      <point x="112" y="-15"/>
    </contour>
  </outline>
</glyph>
<glyph name="one" format="2">
  <advance width="387"/>
  <unicode hex="0031"/>
  <note>
one
</note>
  <outline>
    <contour>
      <point x="47" y="67" type="line"/>
      <point x="47" y="-1" type="line"/>
      <point x="360" y="-1" type="line"/>
      <point x="360" y="67" type="line"/>
      <point x="247" y="67" type="line"/>
      <point x="247" y="497" type="line"/>
      <point x="197" y="497" type="line"/>
      <point x="26" y="414" type="line"/>
      <point x="44" y="367" type="line"/>
      <point x="164" y="404" type="line"/>
      <point x="164" y="67" type="line"/>
    </contour>
  </outline>
</glyph>
<glyph name="four" format="2">
  <advance width="457"/>
  <unicode hex="0034"/>
  <note>
four
</note>
  <outline>
    <contour>
      <point x="249" y="498" type="line"/>
      <point x="-8" y="40" type="line"/>
      <point x="-8" y="0" type="line"/>
      <point x="264" y="0" type="line"/>
      <point x="264" y="-185" type="line"/>
      <point x="347" y="-185" type="line"/>
      <point x="347" y="0" type="line"/>
      <point x="430" y="0" type="line"/>
      <point x="448" y="69" type="line"/>
      <point x="347" y="69" type="line"/>
      <point x="347" y="498" type="line"/>
    </contour>
    <contour>
      <point x="264" y="399" type="line"/>
      <point x="264" y="69" type="line"/>
      <point x="84" y="69" type="line"/>
    </contour>
  </outline>
</glyph>
<glyph name="five" format="2">
  <advance width="364"/>
  <unicode hex="0035"/>
  <note>
five
</note>
  <guideline x="300" y="224" angle="90"/>
  <guideline x="204" y="224" angle="90"/>
  <outline>
    <contour>
      <point x="116" y="497" type="line"/>
      <point x="21" y="273" type="line"/>
      <point x="126" y="235"/>
      <point x="204" y="163"/>
      <point x="204" y="69" type="curve" smooth="yes"/>
      <point x="204" y="-71"/>
      <point x="121" y="-130"/>
      <point x="-18" y="-165" type="curve"/>
      <point x="-5" y="-209" type="line"/>
      <point x="159" y="-184"/>
      <point x="300" y="-87"/>
      <point x="300" y="75" type="curve" smooth="yes"/>
      <point x="300" y="185"/>
      <point x="223" y="258"/>
      <point x="108" y="306" type="curve"/>
      <point x="151" y="412" type="line"/>
      <point x="338" y="412" type="line"/>
      <point x="362" y="497" type="line"/>
    </contour>
  </outline>
</glyph>
<glyph name="seven" format="2">
  <advance width="425"/>
  <unicode hex="0037"/>
  <note>
seven
</note>
  <outline>
    <contour>
      <point x="35" y="497" type="line"/>
      <point x="15" y="422" type="line"/>
      <point x="324" y="422" type="line"/>
      <point x="25" y="-185" type="line"/>
      <point x="127" y="-185" type="line"/>
      <point x="405" y="455" type="line"/>
      <point x="405" y="497" type="line"/>
    </contour>
  </outline>
</glyph>
<glyph name="eight" format="2">
  <advance width="492"/>
  <unicode hex="0038"/>
  <note>
eight
</note>
  <guideline x="445" y="524" angle="90"/>
  <guideline x="349" y="524" angle="90"/>
  <guideline x="164" y="524" angle="90"/>
  <guideline x="68" y="524" angle="90"/>
  <outline>
    <contour>
      <point x="255" y="729" type="curve" smooth="yes"/>
      <point x="164" y="729"/>
      <point x="70" y="661"/>
      <point x="70" y="549" type="curve" smooth="yes"/>
      <point x="70" y="450"/>
      <point x="132" y="396"/>
      <point x="198" y="347" type="curve" smooth="yes"/>
      <point x="270" y="293"/>
      <point x="349" y="254"/>
      <point x="349" y="172" type="curve" smooth="yes"/>
      <point x="349" y="90"/>
      <point x="293" y="49"/>
      <point x="238" y="49" type="curve" smooth="yes"/>
      <point x="183" y="49"/>
      <point x="129" y="89"/>
      <point x="129" y="167" type="curve" smooth="yes"/>
      <point x="129" y="220"/>
      <point x="141" y="281"/>
      <point x="234" y="342" type="curve"/>
      <point x="194" y="381" type="line"/>
      <point x="100" y="319"/>
      <point x="47" y="256"/>
      <point x="47" y="164" type="curve" smooth="yes"/>
      <point x="47" y="49"/>
      <point x="139" y="-10"/>
      <point x="237" y="-11" type="curve" smooth="yes"/>
      <point x="340" y="-12"/>
      <point x="445" y="53"/>
      <point x="445" y="182" type="curve" smooth="yes"/>
      <point x="445" y="300"/>
      <point x="355" y="356"/>
      <point x="279" y="408" type="curve" smooth="yes"/>
      <point x="217" y="451"/>
      <point x="162" y="485"/>
      <point x="162" y="559" type="curve" smooth="yes"/>
      <point x="162" y="634"/>
      <point x="209" y="671"/>
      <point x="255" y="671" type="curve" smooth="yes"/>
      <point x="299" y="671"/>
      <point x="343" y="636"/>
      <point x="343" y="566" type="curve" smooth="yes"/>
      <point x="343" y="513"/>
      <point x="312" y="455"/>
      <point x="251" y="417" type="curve"/>
      <point x="297" y="378" type="line"/>
      <point x="380" y="431"/>
      <point x="420" y="503"/>
      <point x="420" y="571" type="curve" smooth="yes"/>
      <point x="420" y="678"/>
      <point x="339" y="729"/>
    </contour>
  </outline>
</glyph>
<glyph name="nine" format="2">
  <advance width="524"/>
  <unicode hex="0039"/>
  <note>
nine
</note>
  <outline>
    <contour>
      <point x="265" y="509" type="curve" smooth="yes"/>
      <point x="118" y="509"/>
      <point x="41" y="392"/>
      <point x="41" y="282" type="curve" smooth="yes"/>
      <point x="41" y="184"/>
      <point x="103" y="91"/>
      <point x="231" y="91" type="curve" smooth="yes"/>
      <point x="282" y="91"/>
      <point x="339" y="110"/>
      <point x="383" y="150" type="curve"/>
      <point x="395" y="214" type="line"/>
      <point x="348" y="177"/>
      <point x="298" y="159"/>
      <point x="254" y="159" type="curve" smooth="yes"/>
      <point x="175" y="159"/>
      <point x="137" y="227"/>
      <point x="137" y="297" type="curve" smooth="yes"/>
      <point x="137" y="371"/>
      <point x="179" y="446"/>
      <point x="257" y="446" type="curve" smooth="yes"/>
      <point x="335" y="446"/>
      <point x="384" y="364"/>
      <point x="384" y="257" type="curve" smooth="yes"/>
      <point x="384" y="109"/>
      <point x="294" y="-72"/>
      <point x="59" y="-169" type="curve"/>
      <point x="80" y="-216" type="line"/>
      <point x="285" y="-148"/>
      <point x="480" y="23"/>
      <point x="480" y="261" type="curve" smooth="yes"/>
      <point x="480" y="430"/>
      <point x="376" y="509"/>
    </contour>
  </outline>
</glyph>
<glyph name="less" format="2">
  <advance width="630"/>
  <unicode hex="003C"/>
  <note>
less
</note>
  <outline>
    <contour>
      <point x="66" y="287" type="line"/>
      <point x="66" y="214" type="line"/>
      <point x="564" y="-4" type="line"/>
      <point x="564" y="72" type="line"/>
      <point x="159" y="249" type="line"/>
      <point x="564" y="426" type="line"/>
      <point x="564" y="503" type="line"/>
    </contour>
  </outline>
</glyph>
<glyph name="A" format="2">
  <advance width="631"/>
  <unicode hex="0041"/>
  <note>
A
</note>
  <anchor x="310" y="0" name="bottom"/>
  <anchor x="541" y="0" name="ogonek"/>
  <anchor x="316" y="728" name="top"/>
  <outline>
    <contour>
      <point x="362" y="728" type="line"/>
      <point x="271" y="728" type="line"/>
      <point x="18" y="0" type="line"/>
      <point x="102" y="0" type="line"/>
      <point x="187" y="250" type="line"/>
      <point x="427" y="250" type="line"/>
      <point x="511" y="0" type="line"/>
      <point x="614" y="0" type="line"/>
    </contour>
    <contour>
      <point x="308" y="606" type="line"/>
      <point x="404" y="318" type="line"/>
      <point x="210" y="318" type="line"/>
    </contour>
  </outline>
</glyph>
<glyph name="B" format="2">
  <advance width="614"/>
  <unicode hex="0042"/>
  <note>
B
</note>
  <outline>
    <contour>
      <point x="535" y="559" type="curve" smooth="yes"/>
      <point x="535" y="694"/>
      <point x="428" y="728"/>
      <point x="314" y="728" type="curve" smooth="yes"/>
      <point x="71" y="728" type="line"/>
      <point x="72" y="722"/>
      <point x="85" y="664"/>
      <point x="85" y="662" type="curve" smooth="yes"/>
      <point x="85" y="0" type="line"/>
      <point x="283" y="0" type="line" smooth="yes"/>
      <point x="425" y="0"/>
      <point x="568" y="30"/>
      <point x="568" y="204" type="curve" smooth="yes"/>
      <point x="568" y="301"/>
      <point x="511" y="382"/>
      <point x="412" y="397" type="curve"/>
      <point x="490" y="411"/>
      <point x="535" y="484"/>
    </contour>
    <contour>
      <point x="438" y="557" type="curve" smooth="yes"/>
      <point x="438" y="459"/>
      <point x="378" y="427"/>
      <point x="285" y="427" type="curve" smooth="yes"/>
      <point x="178" y="427" type="line"/>
      <point x="178" y="659" type="line"/>
      <point x="311" y="659" type="line" smooth="yes"/>
      <point x="379" y="659"/>
      <point x="438" y="636"/>
    </contour>
    <contour>
      <point x="469" y="219" type="curve" smooth="yes"/>
      <point x="469" y="100"/>
      <point x="394" y="69"/>
      <point x="289" y="69" type="curve" smooth="yes"/>
      <point x="178" y="69" type="line"/>
      <point x="178" y="358" type="line"/>
      <point x="289" y="358" type="line" smooth="yes"/>
      <point x="377" y="358"/>
      <point x="469" y="321"/>
    </contour>
  </outline>
</glyph>
<glyph name="D" format="2">
  <advance width="699"/>
  <unicode hex="0044"/>
  <note>
D
</note>
  <anchor x="195" y="368" name="center"/>
  <anchor x="340" y="728" name="top"/>
  <outline>
    <contour>
      <point x="653" y="362" type="curve" smooth="yes"/>
      <point x="653" y="625"/>
      <point x="502" y="728"/>
      <point x="259" y="728" type="curve" smooth="yes"/>
      <point x="72" y="728" type="line"/>
      <point x="73" y="722"/>
      <point x="86" y="664"/>
      <point x="86" y="662" type="curve" smooth="yes"/>
      <point x="86" y="0" type="line"/>
      <point x="323" y="0" type="line" smooth="yes"/>
      <point x="548" y="0"/>
      <point x="653" y="152"/>
    </contour>
    <contour>
      <point x="556" y="364" type="curve" smooth="yes"/>
      <point x="556" y="202"/>
      <point x="493" y="69"/>
      <point x="311" y="69" type="curve" smooth="yes"/>
      <point x="179" y="69" type="line"/>
      <point x="179" y="659" type="line"/>
      <point x="252" y="659" type="line" smooth="yes"/>
      <point x="451" y="659"/>
      <point x="556" y="575"/>
    </contour>
  </outline>
</glyph>
<glyph name="I" format="2">
  <advance width="268"/>
  <unicode hex="0049"/>
  <note>
I
</note>
  <anchor x="137" y="0" name="bottom"/>
  <anchor x="120" y="0" name="ogonek"/>
  <anchor x="133" y="728" name="top"/>
  <outline>
    <contour>
      <point x="73" y="728" type="line"/>
      <point x="74" y="722"/>
      <point x="87" y="664"/>
      <point x="87" y="662" type="curve" smooth="yes"/>
      <point x="87" y="0" type="line"/>
      <point x="180" y="0" type="line"/>
      <point x="180" y="728" type="line"/>
    </contour>
  </outline>
</glyph>
<glyph name="K" format="2">
  <advance width="583"/>
  <unicode hex="004B"/>
  <note>
K
</note>
  <anchor x="317" y="0" name="bottom"/>
  <outline>
    <contour>
      <point x="72" y="728" type="line"/>
      <point x="86" y="662" type="line"/>
      <point x="86" y="0" type="line"/>
      <point x="179" y="0" type="line"/>
      <point x="179" y="379" type="line"/>
      <point x="467" y="0" type="line"/>
      <point x="583" y="0" type="line"/>
      <point x="278" y="404" type="line"/>
      <point x="565" y="728" type="line"/>
      <point x="468" y="728" type="line"/>
      <point x="179" y="403" type="line"/>
      <point x="179" y="728" type="line"/>
    </contour>
  </outline>
</glyph>
<glyph name="L" format="2">
  <advance width="514"/>
  <unicode hex="004C"/>
  <note>
L
</note>
  <anchor x="293" y="0" name="bottom"/>
  <anchor x="135" y="365" name="center"/>
  <anchor x="133" y="728" name="top"/>
  <anchor x="170" y="492" name="topright"/>
  <outline>
    <contour>
      <point x="72" y="728" type="line"/>
      <point x="86" y="662" type="line"/>
      <point x="86" y="0" type="line"/>
      <point x="485" y="0" type="line"/>
      <point x="485" y="69" type="line"/>
      <point x="179" y="69" type="line"/>
      <point x="179" y="728" type="line"/>
    </contour>
  </outline>
</glyph>
<glyph name="T" format="2">
  <advance width="578"/>
  <unicode hex="0054"/>
  <note>
T
</note>
  <anchor x="287" y="0" name="bottom"/>
  <anchor x="287" y="366" name="center"/>
  <anchor x="287" y="728" name="top"/>
  <outline>
    <contour>
      <point x="240" y="659" type="line"/>
      <point x="240" y="0" type="line"/>
      <point x="335" y="0" type="line"/>
      <point x="335" y="659" type="line"/>
      <point x="554" y="659" type="line"/>
      <point x="554" y="728" type="line"/>
      <point x="24" y="728" type="line"/>
      <point x="24" y="659" type="line"/>
    </contour>
  </outline>
</glyph>
<glyph name="U" format="2">
  <advance width="707"/>
  <unicode hex="0055"/>
  <note>
U
</note>
  <anchor x="352" y="0" name="bottom"/>
  <anchor x="424" y="0" name="ogonek"/>
  <anchor x="359" y="728" name="top"/>
  <anchor x="466" y="743" name="topright"/>
  <outline>
    <contour>
      <point x="181" y="728" type="line"/>
      <point x="71" y="728" type="line"/>
      <point x="86" y="662" type="line"/>
      <point x="86" y="244" type="line" smooth="yes"/>
      <point x="86" y="76"/>
      <point x="184" y="-12"/>
      <point x="351" y="-12" type="curve" smooth="yes"/>
      <point x="522" y="-12"/>
      <point x="620" y="89"/>
      <point x="620" y="258" type="curve" smooth="yes"/>
      <point x="620" y="728" type="line"/>
      <point x="543" y="728" type="line"/>
      <point x="543" y="258" type="line" smooth="yes"/>
      <point x="543" y="139"/>
      <point x="479" y="57"/>
      <point x="355" y="57" type="curve" smooth="yes"/>
      <point x="235" y="57"/>
      <point x="181" y="130"/>
      <point x="181" y="244" type="curve" smooth="yes"/>
    </contour>
  </outline>
</glyph>
<glyph name="W" format="2">
  <advance width="894"/>
  <unicode hex="0057"/>
  <note>
W
</note>
  <anchor x="457" y="728" name="top"/>
  <outline>
    <contour>
      <point x="119" y="728" type="line"/>
      <point x="21" y="728" type="line"/>
      <point x="223" y="-5" type="line"/>
      <point x="300" y="-5" type="line"/>
      <point x="425" y="457" type="line" smooth="yes"/>
      <point x="433" y="485"/>
      <point x="440" y="513"/>
      <point x="448" y="551" type="curve"/>
      <point x="455" y="514"/>
      <point x="463" y="487"/>
      <point x="470" y="460" type="curve" smooth="yes"/>
      <point x="597" y="-5" type="line"/>
      <point x="674" y="-5" type="line"/>
      <point x="873" y="728" type="line"/>
      <point x="795" y="728" type="line"/>
      <point x="670" y="266" type="line" smooth="yes"/>
      <point x="661" y="234"/>
      <point x="653" y="202"/>
      <point x="644" y="160" type="curve"/>
      <point x="635" y="204"/>
      <point x="625" y="239"/>
      <point x="616" y="273" type="curve" smooth="yes"/>
      <point x="494" y="728" type="line"/>
      <point x="420" y="728" type="line"/>
      <point x="296" y="268" type="line" smooth="yes"/>
      <point x="287" y="235"/>
      <point x="279" y="203"/>
      <point x="270" y="160" type="curve"/>
      <point x="260" y="206"/>
      <point x="251" y="241"/>
      <point x="241" y="277" type="curve" smooth="yes"/>
    </contour>
  </outline>
</glyph>
<glyph name="X" format="2">
  <advance width="585"/>
  <unicode hex="0058"/>
  <note>
X
</note>
  <outline>
    <contour>
      <point x="138" y="728" type="line"/>
      <point x="31" y="728" type="line"/>
      <point x="464" y="0" type="line"/>
      <point x="573" y="0" type="line"/>
    </contour>
    <contour>
      <point x="456" y="728" type="line"/>
      <point x="12" y="0" type="line"/>
      <point x="111" y="0" type="line"/>
      <point x="556" y="728" type="line"/>
    </contour>
  </outline>
</glyph>
<glyph name="Y" format="2">
  <advance width="584"/>
  <unicode hex="0059"/>
  <note>
Y
</note>
  <anchor x="297" y="0" name="bottom"/>
  <anchor x="299" y="728" name="top"/>
  <outline>
    <contour>
      <point x="140" y="728" type="line"/>
      <point x="32" y="728" type="line"/>
      <point x="249" y="360" type="line"/>
      <point x="249" y="0" type="line"/>
      <point x="344" y="0" type="line"/>
      <point x="344" y="360" type="line"/>
      <point x="553" y="728" type="line"/>
      <point x="466" y="728" type="line"/>
      <point x="309" y="445" type="line"/>
    </contour>
  </outline>
</glyph>
<glyph name="Z" format="2">
  <advance width="571"/>
  <unicode hex="005A"/>
  <note>
Z
</note>
  <anchor x="286" y="728" name="top"/>
  <outline>
    <contour>
      <point x="57" y="728" type="line"/>
      <point x="57" y="659" type="line"/>
      <point x="413" y="659" type="line"/>
      <point x="35" y="67" type="line"/>
      <point x="35" y="0" type="line"/>
      <point x="529" y="0" type="line"/>
      <point x="537" y="69" type="line"/>
      <point x="146" y="69" type="line"/>
      <point x="524" y="661" type="line"/>
      <point x="524" y="728" type="line"/>
    </contour>
  </outline>
</glyph>
<glyph name="backslash" format="2">
  <advance width="326"/>
  <unicode hex="005C"/>
  <note>
backslash
</note>
  <outline>
    <contour>
      <point x="-3" y="728" type="line"/>
      <point x="262" y="0" type="line"/>
      <point x="329" y="0" type="line"/>
      <point x="66" y="728" type="line"/>
    </contour>
  </outline>
</glyph>
<glyph name="bracketright" format="2">
  <advance width="350"/>
  <unicode hex="005D"/>
  <note>
bracketright
</note>
  <outline>
    <contour>
      <point x="72" y="-78" type="line"/>
      <point x="72" y="-127" type="line"/>
      <point x="279" y="-127" type="line"/>
      <point x="279" y="730" type="line"/>
      <point x="71" y="730" type="line"/>
      <point x="71" y="681" type="line"/>
      <point x="198" y="681" type="line"/>
      <point x="198" y="-78" type="line"/>
    </contour>
  </outline>
</glyph>
<glyph name="underscore" format="2">
  <advance width="499"/>
  <unicode hex="005F"/>
  <note>
underscore
</note>
  <outline>
    <contour>
      <point x="-9" y="-66" type="line"/>
      <point x="-9" y="-126" type="line"/>
      <point x="509" y="-126" type="line"/>
      <point x="509" y="-66" type="line"/>
    </contour>
  </outline>
</glyph>
<glyph name="grave" format="2">
  <advance width="281"/>
  <unicode hex="0060"/>
  <note>
grave
</note>
  <anchor x="207" y="497" name="_top"/>
  <outline>
    <contour>
      <point x="153" y="733" type="line"/>
      <point x="31" y="733" type="line"/>
      <point x="171" y="581" type="line"/>
      <point x="249" y="581" type="line"/>
    </contour>
  </outline>
</glyph>
<glyph name="e" format="2">
  <advance width="494"/>
  <unicode hex="0065"/>
  <note>
e
</note>
  <anchor x="260" y="0" name="bottom"/>
  <anchor x="338" y="0" name="ogonek"/>
  <anchor x="266" y="497" name="top"/>
  <outline>
    <contour>
      <point x="270" y="509" type="curve" smooth="yes"/>
      <point x="119" y="509"/>
      <point x="44" y="375"/>
      <point x="44" y="243" type="curve" smooth="yes"/>
      <point x="44" y="114"/>
      <point x="118" y="-13"/>
      <point x="275" y="-13" type="curve" smooth="yes"/>
      <point x="335" y="-13"/>
      <point x="396" y="5"/>
      <point x="443" y="43" type="curve"/>
      <point x="412" y="93" type="line"/>
      <point x="366" y="69"/>
      <point x="324" y="57"/>
      <point x="286" y="57" type="curve" smooth="yes"/>
      <point x="193" y="57"/>
      <point x="132" y="129"/>
      <point x="132" y="256" type="curve"/>
      <point x="448" y="256" type="line"/>
      <point x="451" y="277"/>
      <point x="453" y="296"/>
      <point x="453" y="315" type="curve" smooth="yes"/>
      <point x="453" y="431"/>
      <point x="390" y="509"/>
    </contour>
    <contour>
      <point x="262" y="446" type="curve" smooth="yes"/>
      <point x="328" y="446"/>
      <point x="368" y="401"/>
      <point x="366" y="318" type="curve"/>
      <point x="138" y="318" type="line"/>
      <point x="149" y="380"/>
      <point x="194" y="446"/>
    </contour>
  </outline>
</glyph>
<glyph name="g" format="2">
  <advance width="477"/>
  <unicode hex="0067"/>
  <note>
g
</note>
  <anchor x="233" y="497" name="top"/>
  <outline>
    <contour>
      <point x="220" y="509" type="curve" smooth="yes"/>
      <point x="125" y="509"/>
      <point x="44" y="433"/>
      <point x="44" y="336" type="curve" smooth="yes"/>
      <point x="44" y="279"/>
      <point x="74" y="226"/>
      <point x="121" y="194" type="curve"/>
      <point x="85" y="128"/>
      <point x="52" y="112"/>
      <point x="52" y="87" type="curve" smooth="yes"/>
      <point x="52" y="57"/>
      <point x="69" y="30"/>
      <point x="99" y="15" type="curve"/>
      <point x="99" y="12" type="line"/>
      <point x="57" y="-15"/>
      <point x="21" y="-54"/>
      <point x="21" y="-104" type="curve" smooth="yes"/>
      <point x="21" y="-199"/>
      <point x="126" y="-230"/>
      <point x="200" y="-230" type="curve" smooth="yes"/>
      <point x="326" y="-230"/>
      <point x="457" y="-174"/>
      <point x="457" y="-26" type="curve" smooth="yes"/>
      <point x="457" y="66"/>
      <point x="370" y="78"/>
      <point x="301" y="78" type="curve" smooth="yes"/>
      <point x="204" y="78" type="line" smooth="yes"/>
      <point x="176" y="78"/>
      <point x="143" y="76"/>
      <point x="143" y="113" type="curve" smooth="yes"/>
      <point x="143" y="149"/>
      <point x="172" y="166"/>
      <point x="206" y="166" type="curve" smooth="yes"/>
      <point x="328" y="166"/>
      <point x="396" y="240"/>
      <point x="396" y="341" type="curve" smooth="yes"/>
      <point x="396" y="375"/>
      <point x="385" y="409"/>
      <point x="362" y="440" type="curve"/>
      <point x="371" y="439"/>
      <point x="382" y="438"/>
      <point x="391" y="438" type="curve" smooth="yes"/>
      <point x="471" y="438" type="line"/>
      <point x="489" y="510" type="line"/>
      <point x="431" y="502"/>
      <point x="381" y="495"/>
      <point x="330" y="495" type="curve" smooth="yes"/>
      <point x="293" y="495"/>
      <point x="258" y="509"/>
    </contour>
    <contour>
      <point x="221" y="449" type="curve" smooth="yes"/>
      <point x="269" y="449"/>
      <point x="310" y="400"/>
      <point x="310" y="336" type="curve" smooth="yes"/>
      <point x="310" y="269"/>
      <point x="274" y="224"/>
      <point x="220" y="224" type="curve" smooth="yes"/>
      <point x="172" y="224"/>
      <point x="131" y="273"/>
      <point x="131" y="337" type="curve" smooth="yes"/>
      <point x="131" y="400"/>
      <point x="172" y="449"/>
    </contour>
    <contour>
      <point x="158" y="-1" type="curve"/>
      <point x="278" y="-1" type="line" smooth="yes"/>
      <point x="323" y="-1"/>
      <point x="380" y="-3"/>
      <point x="380" y="-55" type="curve" smooth="yes"/>
      <point x="380" y="-136"/>
      <point x="285" y="-162"/>
      <point x="215" y="-162" type="curve" smooth="yes"/>
      <point x="170" y="-162"/>
      <point x="107" y="-136"/>
      <point x="107" y="-87" type="curve" smooth="yes"/>
      <point x="107" y="-56"/>
      <point x="132" y="-20"/>
    </contour>
  </outline>
</glyph>
<glyph name="h" format="2">
  <advance width="547"/>
  <unicode hex="0068"/>
  <note>
h
</note>
  <anchor x="268" y="0" name="bottom"/>
  <anchor x="179" y="607" name="center"/>
  <anchor x="122" y="728" name="top"/>
  <outline>
    <contour>
      <point x="164" y="762" type="line"/>
      <point x="69" y="762" type="line"/>
      <point x="82" y="703" type="line"/>
      <point x="82" y="0" type="line"/>
      <point x="164" y="0" type="line"/>
      <point x="164" y="370" type="line"/>
      <point x="201" y="401"/>
      <point x="251" y="436"/>
      <point x="301" y="436" type="curve" smooth="yes"/>
      <point x="380" y="436"/>
      <point x="384" y="367"/>
      <point x="384" y="306" type="curve" smooth="yes"/>
      <point x="384" y="0" type="line"/>
      <point x="466" y="0" type="line"/>
      <point x="466" y="333" type="line" smooth="yes"/>
      <point x="466" y="436"/>
      <point x="425" y="510"/>
      <point x="315" y="510" type="curve" smooth="yes"/>
      <point x="255" y="510"/>
      <point x="206" y="478"/>
      <point x="164" y="438" type="curve"/>
    </contour>
  </outline>
</glyph>
<glyph name="i" format="2">
  <advance width="251"/>
  <unicode hex="0069"/>
  <note>
i
</note>
  <anchor x="126" y="0" name="bottom"/>
  <anchor x="127" y="0" name="ogonek"/>
  <outline>
    <contour>
      <point x="185" y="664" type="curve" smooth="yes"/>
      <point x="185" y="697"/>
      <point x="157" y="725"/>
      <point x="124" y="725" type="curve" smooth="yes"/>
      <point x="91" y="725"/>
      <point x="64" y="697"/>
      <point x="64" y="664" type="curve" smooth="yes"/>
      <point x="64" y="631"/>
      <point x="91" y="603"/>
      <point x="124" y="603" type="curve" smooth="yes"/>
      <point x="158" y="603"/>
      <point x="185" y="630"/>
    </contour>
    <contour>
      <point x="167" y="497" type="line"/>
      <point x="72" y="497" type="line"/>
      <point x="84" y="438" type="line"/>
      <point x="84" y="0" type="line"/>
      <point x="167" y="0" type="line"/>
    </contour>
  </outline>
</glyph>
<glyph name="j" format="2">
  <advance width="251"/>
  <unicode hex="006A"/>
  <note>
j
</note>
  <outline>
    <contour>
      <point x="187" y="664" type="curve" smooth="yes"/>
      <point x="187" y="697"/>
      <point x="159" y="725"/>
      <point x="126" y="725" type="curve" smooth="yes"/>
      <point x="93" y="725"/>
      <point x="65" y="697"/>
      <point x="65" y="664" type="curve" smooth="yes"/>
      <point x="65" y="630"/>
      <point x="92" y="603"/>
      <point x="126" y="603" type="curve" smooth="yes"/>
      <point x="160" y="603"/>
      <point x="187" y="630"/>
    </contour>
    <contour>
      <point x="167" y="497" type="line"/>
      <point x="71" y="497" type="line"/>
      <point x="84" y="438" type="line"/>
      <point x="84" y="13" type="line" smooth="yes"/>
      <point x="84" y="-59"/>
      <point x="84" y="-150"/>
      <point x="11" y="-188" type="curve"/>
      <point x="25" y="-228" type="line"/>
      <point x="149" y="-211"/>
      <point x="167" y="-77"/>
      <point x="167" y="25" type="curve" smooth="yes"/>
    </contour>
  </outline>
</glyph>
<glyph name="l" format="2">
  <advance width="251"/>
  <unicode hex="006C"/>
  <note>
l
</note>
  <anchor x="126" y="0" name="bottom"/>
  <anchor x="126" y="371" name="center"/>
  <anchor x="122" y="728" name="top"/>
  <anchor x="22" y="527" name="topright"/>
  <outline>
    <contour>
      <point x="167" y="762" type="line"/>
      <point x="71" y="762" type="line"/>
      <point x="84" y="704" type="line"/>
      <point x="84" y="0" type="line"/>
      <point x="167" y="0" type="line"/>
    </contour>
  </outline>
</glyph>
<glyph name="r" format="2">
  <advance width="349"/>
  <unicode hex="0072"/>
  <note>
r
</note>
  <anchor x="123" y="0" name="bottom"/>
  <anchor x="172" y="497" name="top"/>
  <outline>
    <contour>
      <point x="139" y="506" type="curve"/>
      <point x="49" y="495" type="line"/>
      <point x="72" y="461"/>
      <point x="81" y="399"/>
      <point x="81" y="360" type="curve" smooth="yes"/>
      <point x="81" y="0" type="line"/>
      <point x="164" y="0" type="line"/>
      <point x="164" y="330" type="line"/>
      <point x="198" y="380"/>
      <point x="241" y="418"/>
      <point x="305" y="418" type="curve"/>
      <point x="325" y="506" type="line"/>
      <point x="259" y="506"/>
      <point x="197" y="467"/>
      <point x="162" y="413" type="curve"/>
      <point x="159" y="444"/>
      <point x="151" y="477"/>
    </contour>
  </outline>
</glyph>
<glyph name="s" format="2">
  <advance width="430"/>
  <unicode hex="0073"/>
  <note>
s
</note>
  <anchor x="225" y="0" name="bottom"/>
  <anchor x="219" y="497" name="top"/>
  <outline>
    <contour>
      <point x="244" y="509" type="curve" smooth="yes"/>
      <point x="151" y="509"/>
      <point x="65" y="460"/>
      <point x="65" y="364" type="curve" smooth="yes"/>
      <point x="65" y="280"/>
      <point x="128" y="247"/>
      <point x="188" y="218" type="curve" smooth="yes"/>
      <point x="240" y="193"/>
      <point x="293" y="172"/>
      <point x="293" y="122" type="curve" smooth="yes"/>
      <point x="293" y="74"/>
      <point x="249" y="50"/>
      <point x="198" y="50" type="curve" smooth="yes"/>
      <point x="160" y="50"/>
      <point x="118" y="66"/>
      <point x="86" y="90" type="curve"/>
      <point x="51" y="29" type="line"/>
      <point x="96" y="2"/>
      <point x="152" y="-13"/>
      <point x="205" y="-13" type="curve" smooth="yes"/>
      <point x="297" y="-13"/>
      <point x="379" y="31"/>
      <point x="379" y="132" type="curve" smooth="yes"/>
      <point x="379" y="227"/>
      <point x="299" y="258"/>
      <point x="233" y="289" type="curve" smooth="yes"/>
      <point x="188" y="310"/>
      <point x="150" y="329"/>
      <point x="150" y="378" type="curve" smooth="yes"/>
      <point x="150" y="423"/>
      <point x="193" y="446"/>
      <point x="242" y="446" type="curve" smooth="yes"/>
      <point x="277" y="446"/>
      <point x="315" y="434"/>
      <point x="344" y="410" type="curve"/>
      <point x="373" y="474" type="line"/>
      <point x="335" y="498"/>
      <point x="289" y="509"/>
    </contour>
  </outline>
</glyph>
<glyph name="u" format="2">
  <advance width="553"/>
  <unicode hex="0075"/>
  <note>
u
</note>
  <anchor x="276" y="0" name="bottom"/>
  <anchor x="474" y="0" name="ogonek"/>
  <anchor x="274" y="497" name="top"/>
  <anchor x="329" y="507" name="topright"/>
  <outline>
    <contour>
      <point x="163" y="497" type="line"/>
      <point x="67" y="497" type="line"/>
      <point x="80" y="438" type="line"/>
      <point x="80" y="164" type="line" smooth="yes"/>
      <point x="80" y="61"/>
      <point x="122" y="-13"/>
      <point x="232" y="-13" type="curve" smooth="yes"/>
      <point x="289" y="-13"/>
      <point x="346" y="19"/>
      <point x="385" y="59" type="curve"/>
      <point x="393" y="8"/>
      <point x="422" y="-9"/>
      <point x="457" y="-9" type="curve" smooth="yes"/>
      <point x="486" y="-9"/>
      <point x="521" y="0"/>
      <point x="548" y="15" type="curve"/>
      <point x="530" y="69" type="line"/>
      <point x="514" y="63"/>
      <point x="502" y="60"/>
      <point x="492" y="60" type="curve" smooth="yes"/>
      <point x="473" y="60"/>
      <point x="465" y="72"/>
      <point x="465" y="97" type="curve" smooth="yes"/>
      <point x="465" y="497" type="line"/>
      <point x="369" y="497" type="line"/>
      <point x="370" y="492"/>
      <point x="382" y="440"/>
      <point x="382" y="438" type="curve" smooth="yes"/>
      <point x="382" y="188" type="line" smooth="yes"/>
      <point x="382" y="112"/>
      <point x="319" y="61"/>
      <point x="246" y="61" type="curve" smooth="yes"/>
      <point x="170" y="61"/>
      <point x="163" y="132"/>
      <point x="163" y="191" type="curve" smooth="yes"/>
    </contour>
  </outline>
</glyph>
<glyph name="v" format="2">
  <advance width="455"/>
  <unicode hex="0076"/>
  <note>
v
</note>
  <outline>
    <contour>
      <point x="100" y="497" type="line"/>
      <point x="12" y="497" type="line"/>
      <point x="189" y="-6" type="line"/>
      <point x="265" y="-6" type="line"/>
      <point x="443" y="497" type="line"/>
      <point x="365" y="497" type="line"/>
      <point x="256" y="185" type="line" smooth="yes"/>
      <point x="248" y="162"/>
      <point x="241" y="141"/>
      <point x="233" y="109" type="curve"/>
      <point x="225" y="142"/>
      <point x="217" y="164"/>
      <point x="208" y="189" type="curve" smooth="yes"/>
    </contour>
  </outline>
</glyph>
<glyph name="w" format="2">
  <advance width="658"/>
  <unicode hex="0077"/>
  <note>
w
</note>
  <anchor x="334" y="497" name="top"/>
  <outline>
    <contour>
      <point x="99" y="497" type="line"/>
      <point x="13" y="497" type="line"/>
      <point x="160" y="-6" type="line"/>
      <point x="221" y="-6" type="line"/>
      <point x="258" y="110"/>
      <point x="291" y="203"/>
      <point x="328" y="343" type="curve"/>
      <point x="363" y="203"/>
      <point x="394" y="110"/>
      <point x="429" y="-6" type="curve"/>
      <point x="489" y="-6" type="line"/>
      <point x="646" y="497" type="line"/>
      <point x="572" y="497" type="line"/>
      <point x="483" y="208" type="line" smooth="yes"/>
      <point x="478" y="191"/>
      <point x="472" y="174"/>
      <point x="467" y="147" type="curve"/>
      <point x="462" y="174"/>
      <point x="457" y="191"/>
      <point x="452" y="208" type="curve" smooth="yes"/>
      <point x="365" y="497" type="line"/>
      <point x="306" y="497" type="line"/>
      <point x="215" y="206" type="line" smooth="yes"/>
      <point x="210" y="190"/>
      <point x="205" y="173"/>
      <point x="200" y="147" type="curve"/>
      <point x="195" y="174"/>
      <point x="190" y="191"/>
      <point x="185" y="208" type="curve" smooth="yes"/>
    </contour>
  </outline>
</glyph>
<glyph name="asciitilde" format="2">
  <advance width="663"/>
  <unicode hex="007E"/>
  <note>
asciitilde
</note>
  <outline>
    <contour>
      <point x="579" y="298" type="curve"/>
      <point x="527" y="345" type="line"/>
      <point x="510" y="312"/>
      <point x="475" y="277"/>
      <point x="436" y="277" type="curve" smooth="yes"/>
      <point x="381" y="277"/>
      <point x="309" y="346"/>
      <point x="221" y="346" type="curve" smooth="yes"/>
      <point x="161" y="346"/>
      <point x="108" y="297"/>
      <point x="84" y="245" type="curve"/>
      <point x="137" y="201" type="line"/>
      <point x="152" y="233"/>
      <point x="183" y="271"/>
      <point x="221" y="271" type="curve" smooth="yes"/>
      <point x="298" y="271"/>
      <point x="357" y="202"/>
      <point x="436" y="202" type="curve" smooth="yes"/>
      <point x="492" y="202"/>
      <point x="550" y="253"/>
    </contour>
  </outline>
</glyph>
<glyph name="sterling" format="2">
  <advance width="581"/>
  <unicode hex="00A3"/>
  <note>
sterling
</note>
  <outline>
    <contour>
      <point x="56" y="69" type="line"/>
      <point x="56" y="0" type="line"/>
      <point x="535" y="0" type="line"/>
      <point x="535" y="69" type="line"/>
      <point x="243" y="69" type="line"/>
      <point x="243" y="506" type="line"/>
      <point x="243" y="572"/>
      <point x="277" y="628"/>
      <point x="348" y="628" type="curve" smooth="yes"/>
      <point x="394" y="628"/>
      <point x="429" y="596"/>
      <point x="449" y="557" type="curve"/>
      <point x="524" y="599" type="line"/>
      <point x="486" y="660"/>
      <point x="421" y="697"/>
      <point x="349" y="697" type="curve" smooth="yes"/>
      <point x="229" y="697"/>
      <point x="149" y="627"/>
      <point x="149" y="504" type="curve"/>
      <point x="149" y="69" type="line"/>
    </contour>
    <contour>
      <point x="73" y="298" type="line"/>
      <point x="397" y="298" type="line"/>
      <point x="407" y="360" type="line"/>
      <point x="83" y="360" type="line"/>
    </contour>
  </outline>
</glyph>
<glyph name="currency" format="2">
  <advance width="536"/>
  <unicode hex="00A4"/>
  <note>
currency
</note>
  <outline>
    <contour>
      <point x="266" y="458" type="curve" smooth="yes"/>
      <point x="222" y="458"/>
      <point x="182" y="442"/>
      <point x="150" y="416" type="curve"/>
      <point x="96" y="471" type="line"/>
      <point x="47" y="422" type="line"/>
      <point x="104" y="365" type="line"/>
      <point x="84" y="332"/>
      <point x="72" y="293"/>
      <point x="72" y="252" type="curve" smooth="yes"/>
      <point x="72" y="210"/>
      <point x="84" y="171"/>
      <point x="103" y="139" type="curve"/>
      <point x="47" y="83" type="line"/>
      <point x="96" y="34" type="line"/>
      <point x="149" y="87" type="line"/>
      <point x="182" y="61"/>
      <point x="222" y="45"/>
      <point x="266" y="45" type="curve" smooth="yes"/>
      <point x="309" y="45"/>
      <point x="350" y="60"/>
      <point x="382" y="87" type="curve"/>
      <point x="436" y="34" type="line"/>
      <point x="485" y="82" type="line"/>
      <point x="427" y="138" type="line"/>
      <point x="447" y="171"/>
      <point x="460" y="209"/>
      <point x="460" y="252" type="curve" smooth="yes"/>
      <point x="460" y="293"/>
      <point x="447" y="332"/>
      <point x="427" y="365" type="curve"/>
      <point x="485" y="422" type="line"/>
      <point x="436" y="471" type="line"/>
      <point x="381" y="417" type="line"/>
      <point x="349" y="443"/>
      <point x="309" y="458"/>
    </contour>
    <contour>
      <point x="266" y="397" type="curve" smooth="yes"/>
      <point x="336" y="397"/>
      <point x="388" y="332"/>
      <point x="388" y="252" type="curve" smooth="yes"/>
      <point x="388" y="164"/>
      <point x="330" y="106"/>
      <point x="266" y="106" type="curve" smooth="yes"/>
      <point x="203" y="106"/>
      <point x="145" y="165"/>
      <point x="145" y="252" type="curve" smooth="yes"/>
      <point x="145" y="333"/>
      <point x="197" y="397"/>
    </contour>
  </outline>
</glyph>
<glyph name="section" format="2">
  <advance width="495"/>
  <unicode hex="00A7"/>
  <note>
section
</note>
  <outline>
    <contour>
      <point x="53" y="327" type="curve" smooth="yes"/>
      <point x="53" y="132"/>
      <point x="321" y="135"/>
      <point x="321" y="-9" type="curve" smooth="yes"/>
      <point x="321" y="-55"/>
      <point x="276" y="-86"/>
      <point x="219" y="-86" type="curve" smooth="yes"/>
      <point x="181" y="-86"/>
      <point x="137" y="-72"/>
      <point x="97" y="-41" type="curve"/>
      <point x="68" y="-105" type="line"/>
      <point x="116" y="-136"/>
      <point x="168" y="-150"/>
      <point x="217" y="-150" type="curve" smooth="yes"/>
      <point x="319" y="-150"/>
      <point x="406" y="-89"/>
      <point x="406" y="5" type="curve" smooth="yes"/>
      <point x="406" y="55"/>
      <point x="388" y="93"/>
      <point x="361" y="123" type="curve"/>
      <point x="416" y="142"/>
      <point x="455" y="185"/>
      <point x="455" y="255" type="curve" smooth="yes"/>
      <point x="455" y="450"/>
      <point x="187" y="447"/>
      <point x="187" y="591" type="curve" smooth="yes"/>
      <point x="187" y="637"/>
      <point x="232" y="668"/>
      <point x="289" y="668" type="curve" smooth="yes"/>
      <point x="327" y="668"/>
      <point x="371" y="654"/>
      <point x="411" y="623" type="curve"/>
      <point x="440" y="687" type="line"/>
      <point x="392" y="718"/>
      <point x="340" y="732"/>
      <point x="291" y="732" type="curve" smooth="yes"/>
      <point x="189" y="732"/>
      <point x="102" y="671"/>
      <point x="102" y="577" type="curve" smooth="yes"/>
      <point x="102" y="527"/>
      <point x="120" y="489"/>
      <point x="147" y="459" type="curve"/>
      <point x="92" y="440"/>
      <point x="53" y="397"/>
    </contour>
    <contour>
      <point x="139" y="337" type="curve" smooth="yes"/>
      <point x="139" y="377"/>
      <point x="170" y="400"/>
      <point x="209" y="407" type="curve"/>
      <point x="284" y="357"/>
      <point x="369" y="322"/>
      <point x="369" y="245" type="curve" smooth="yes"/>
      <point x="369" y="205"/>
      <point x="338" y="182"/>
      <point x="299" y="175" type="curve"/>
      <point x="224" y="225"/>
      <point x="139" y="260"/>
    </contour>
  </outline>
</glyph>
<glyph name="logicalnot" format="2">
  <advance width="638"/>
  <unicode hex="00AC"/>
  <note>
logicalnot
</note>
  <outline>
    <contour>
      <point x="504" y="279" type="line"/>
      <point x="504" y="89" type="line"/>
      <point x="565" y="89" type="line"/>
      <point x="565" y="339" type="line"/>
      <point x="72" y="339" type="line"/>
      <point x="72" y="279" type="line"/>
    </contour>
  </outline>
</glyph>
<glyph name="registered" format="2">
  <advance width="467"/>
  <unicode hex="00AE"/>
  <note>
registered
</note>
  <outline>
    <contour>
      <point x="432" y="603" type="curve" smooth="yes"/>
      <point x="432" y="713"/>
      <point x="342" y="801"/>
      <point x="233" y="801" type="curve" smooth="yes"/>
      <point x="123" y="801"/>
      <point x="35" y="713"/>
      <point x="35" y="603" type="curve" smooth="yes"/>
      <point x="35" y="493"/>
      <point x="123" y="405"/>
      <point x="233" y="405" type="curve" smooth="yes"/>
      <point x="342" y="405"/>
      <point x="432" y="493"/>
    </contour>
    <contour>
      <point x="399" y="603" type="curve" smooth="yes"/>
      <point x="399" y="512"/>
      <point x="324" y="438"/>
      <point x="233" y="438" type="curve" smooth="yes"/>
      <point x="142" y="438"/>
      <point x="68" y="512"/>
      <point x="68" y="603" type="curve" smooth="yes"/>
      <point x="68" y="694"/>
      <point x="142" y="768"/>
      <point x="233" y="768" type="curve" smooth="yes"/>
      <point x="324" y="768"/>
      <point x="399" y="694"/>
    </contour>
    <contour>
      <point x="152" y="717" type="line"/>
      <point x="152" y="492" type="line"/>
      <point x="202" y="492" type="line"/>
      <point x="202" y="588" type="line"/>
      <point x="220" y="588" type="line"/>
      <point x="285" y="492" type="line"/>
      <point x="345" y="492" type="line"/>
      <point x="272" y="596" type="line"/>
      <point x="297" y="605"/>
      <point x="318" y="625"/>
      <point x="318" y="653" type="curve" smooth="yes"/>
      <point x="318" y="704"/>
      <point x="282" y="717"/>
      <point x="240" y="717" type="curve" smooth="yes"/>
    </contour>
    <contour>
      <point x="202" y="680" type="line"/>
      <point x="233" y="680" type="line" smooth="yes"/>
      <point x="252" y="680"/>
      <point x="268" y="672"/>
      <point x="268" y="655" type="curve" smooth="yes"/>
      <point x="268" y="632"/>
      <point x="251" y="625"/>
      <point x="226" y="625" type="curve" smooth="yes"/>
      <point x="202" y="625" type="line"/>
    </contour>
  </outline>
</glyph>
<glyph name="macron" format="2">
  <advance width="304"/>
  <unicode hex="00AF"/>
  <note>
macron
</note>
  <anchor x="153" y="497" name="_top"/>
  <outline>
    <contour>
      <point x="0" y="689" type="line"/>
      <point x="0" y="625" type="line"/>
      <point x="304" y="625" type="line"/>
      <point x="304" y="689" type="line"/>
    </contour>
  </outline>
</glyph>
<glyph name="degree" format="2">
  <advance width="388"/>
  <unicode hex="00B0"/>
  <note>
degree
</note>
  <outline>
    <contour>
      <point x="194" y="743" type="curve" smooth="yes"/>
      <point x="111" y="743"/>
      <point x="44" y="676"/>
      <point x="44" y="593" type="curve" smooth="yes"/>
      <point x="44" y="510"/>
      <point x="111" y="443"/>
      <point x="194" y="443" type="curve" smooth="yes"/>
      <point x="277" y="443"/>
      <point x="344" y="510"/>
      <point x="344" y="593" type="curve" smooth="yes"/>
      <point x="344" y="676"/>
      <point x="277" y="743"/>
    </contour>
    <contour>
      <point x="194" y="683" type="curve" smooth="yes"/>
      <point x="244" y="683"/>
      <point x="281" y="642"/>
      <point x="281" y="593" type="curve" smooth="yes"/>
      <point x="281" y="544"/>
      <point x="244" y="503"/>
      <point x="194" y="503" type="curve" smooth="yes"/>
      <point x="144" y="503"/>
      <point x="106" y="544"/>
      <point x="106" y="593" type="curve" smooth="yes"/>
      <point x="106" y="642"/>
      <point x="144" y="683"/>
    </contour>
  </outline>
</glyph>
<glyph name="plusminus" format="2">
  <advance width="632"/>
  <unicode hex="00B1"/>
  <note>
plusminus
</note>
  <outline>
    <contour>
      <point x="352" y="97" type="line"/>
      <point x="352" y="262" type="line"/>
      <point x="567" y="262" type="line"/>
      <point x="567" y="332" type="line"/>
      <point x="352" y="332" type="line"/>
      <point x="352" y="496" type="line"/>
      <point x="282" y="496" type="line"/>
      <point x="282" y="332" type="line"/>
      <point x="68" y="332" type="line"/>
      <point x="68" y="262" type="line"/>
      <point x="282" y="262" type="line"/>
      <point x="282" y="97" type="line"/>
    </contour>
    <contour>
      <point x="68" y="69" type="line"/>
      <point x="68" y="-1" type="line"/>
      <point x="567" y="-1" type="line"/>
      <point x="567" y="69" type="line"/>
    </contour>
  </outline>
</glyph>
<glyph name="twosuperior" format="2">
  <advance width="455"/>
  <unicode hex="00B2"/>
  <note>
uni00B2
</note>
  <outline>
    <contour>
      <point x="58" y="472" type="curve"/>
      <point x="58" y="434" type="line"/>
      <point x="389" y="434" type="line"/>
      <point x="408" y="502" type="line"/>
      <point x="171" y="502" type="line" smooth="yes"/>
      <point x="171" y="502"/>
      <point x="394" y="651"/>
      <point x="394" y="801" type="curve" smooth="yes"/>
      <point x="394" y="861"/>
      <point x="357" y="928"/>
      <point x="247" y="928" type="curve" smooth="yes"/>
      <point x="138" y="928"/>
      <point x="73" y="864"/>
      <point x="73" y="864" type="curve"/>
      <point x="105" y="817" type="line"/>
      <point x="105" y="817"/>
      <point x="163" y="870"/>
      <point x="231" y="870" type="curve" smooth="yes"/>
      <point x="281" y="870"/>
      <point x="310" y="838"/>
      <point x="310" y="795" type="curve" smooth="yes"/>
      <point x="310" y="667"/>
      <point x="58" y="472"/>
    </contour>
  </outline>
</glyph>
<glyph name="acute" format="2">
  <advance width="281"/>
  <unicode hex="00B4"/>
  <note>
acute
</note>
  <anchor x="73" y="497" name="_top"/>
  <outline>
    <contour>
      <point x="127" y="733" type="line"/>
      <point x="31" y="581" type="line"/>
      <point x="109" y="581" type="line"/>
      <point x="249" y="733" type="line"/>
    </contour>
  </outline>
</glyph>
<glyph name="guillemetright" format="2">
  <advance width="466"/>
  <unicode hex="00BB"/>
  <note>
guillemotright
</note>
  <outline>
    <contour>
      <point x="263" y="334" type="line"/>
      <point x="118" y="497" type="line"/>
      <point x="57" y="485" type="line"/>
      <point x="173" y="334" type="line"/>
      <point x="55" y="179" type="line"/>
      <point x="114" y="171" type="line"/>
    </contour>
    <contour>
      <point x="411" y="334" type="line"/>
      <point x="267" y="497" type="line"/>
      <point x="206" y="485" type="line"/>
      <point x="322" y="334" type="line"/>
      <point x="203" y="179" type="line"/>
      <point x="263" y="171" type="line"/>
    </contour>
  </outline>
</glyph>
<glyph name="onequarter" format="2">
  <advance width="1129"/>
  <unicode hex="00BC"/>
  <note>
onequarter
</note>
  <outline>
    <contour>
      <point x="718" y="730" type="line"/>
      <point x="345" y="-7" type="line"/>
      <point x="409" y="-7" type="line"/>
      <point x="784" y="730" type="line"/>
    </contour>
    <contour>
      <point x="91" y="303" type="line"/>
      <point x="91" y="244" type="line"/>
      <point x="395" y="244" type="line"/>
      <point x="395" y="303" type="line"/>
      <point x="295" y="303" type="line"/>
      <point x="295" y="728" type="line"/>
      <point x="245" y="728" type="line"/>
      <point x="76" y="662" type="line"/>
      <point x="94" y="613" type="line"/>
      <point x="215" y="648" type="line"/>
      <point x="215" y="303" type="line"/>
    </contour>
    <contour>
      <point x="940" y="110" type="line"/>
      <point x="940" y="0" type="line"/>
      <point x="1020" y="0" type="line"/>
      <point x="1020" y="110" type="line"/>
      <point x="1078" y="110" type="line"/>
      <point x="1095" y="169" type="line"/>
      <point x="1020" y="169" type="line"/>
      <point x="1020" y="483" type="line"/>
      <point x="940" y="483" type="line"/>
      <point x="711" y="150" type="line"/>
      <point x="711" y="110" type="line"/>
    </contour>
    <contour>
      <point x="943" y="387" type="line"/>
      <point x="940" y="169" type="line"/>
      <point x="796" y="169" type="line"/>
    </contour>
  </outline>
</glyph>
<glyph name="multiply" format="2">
  <advance width="534"/>
  <unicode hex="00D7"/>
  <note>
multiply
</note>
  <outline>
    <contour>
      <point x="267" y="202" type="line"/>
      <point x="419" y="50" type="line"/>
      <point x="463" y="94" type="line"/>
      <point x="310" y="246" type="line"/>
      <point x="463" y="398" type="line"/>
      <point x="419" y="442" type="line"/>
      <point x="267" y="290" type="line"/>
      <point x="115" y="442" type="line"/>
      <point x="71" y="398" type="line"/>
      <point x="224" y="246" type="line"/>
      <point x="71" y="94" type="line"/>
      <point x="115" y="50" type="line"/>
    </contour>
  </outline>
</glyph>
<glyph name="germandbls" format="2">
  <advance width="552"/>
  <unicode hex="00DF"/>
  <note>
germandbls
</note>
  <outline>
    <contour>
      <point x="28" y="434" type="line"/>
      <point x="102" y="434" type="line"/>
      <point x="102" y="0" type="line"/>
      <point x="185" y="0" type="line"/>
      <point x="185" y="474" type="line" smooth="yes"/>
      <point x="185" y="553"/>
      <point x="200" y="671"/>
      <point x="306" y="671" type="curve" smooth="yes"/>
      <point x="362" y="671"/>
      <point x="385" y="636"/>
      <point x="385" y="602" type="curve" smooth="yes"/>
      <point x="385" y="497"/>
      <point x="238" y="462"/>
      <point x="238" y="357" type="curve" smooth="yes"/>
      <point x="238" y="208"/>
      <point x="449" y="227"/>
      <point x="449" y="122" type="curve" smooth="yes"/>
      <point x="449" y="38"/>
      <point x="333" y="29"/>
      <point x="272" y="90" type="curve"/>
      <point x="237" y="29" type="line"/>
      <point x="351" y="-51"/>
      <point x="535" y="-19"/>
      <point x="535" y="132" type="curve" smooth="yes"/>
      <point x="535" y="297"/>
      <point x="323" y="265"/>
      <point x="323" y="373" type="curve" smooth="yes"/>
      <point x="323" y="445"/>
      <point x="474" y="481"/>
      <point x="474" y="620" type="curve" smooth="yes"/>
      <point x="474" y="693"/>
      <point x="405" y="741"/>
      <point x="308" y="741" type="curve" smooth="yes"/>
      <point x="197" y="741"/>
      <point x="138" y="671"/>
      <point x="115" y="568" type="curve" smooth="yes"/>
      <point x="102" y="509"/>
      <point x="91" y="489"/>
      <point x="28" y="489" type="curve"/>
    </contour>
  </outline>
</glyph>
<glyph name="ae" format="2">
  <advance width="779"/>
  <unicode hex="00E6"/>
  <note>
ae
</note>
  <anchor x="398" y="497" name="top"/>
  <outline>
    <contour>
      <point x="44" y="120" type="curve" smooth="yes"/>
      <point x="44" y="38"/>
      <point x="102" y="-11"/>
      <point x="181" y="-11" type="curve" smooth="yes"/>
      <point x="252" y="-11"/>
      <point x="318" y="18"/>
      <point x="365" y="97" type="curve"/>
      <point x="402" y="32"/>
      <point x="466" y="-13"/>
      <point x="560" y="-13" type="curve" smooth="yes"/>
      <point x="620" y="-13"/>
      <point x="681" y="5"/>
      <point x="728" y="43" type="curve"/>
      <point x="691" y="103" type="line"/>
      <point x="658" y="75"/>
      <point x="605" y="57"/>
      <point x="562" y="57" type="curve" smooth="yes"/>
      <point x="479" y="57"/>
      <point x="417" y="136"/>
      <point x="417" y="256" type="curve"/>
      <point x="733" y="256" type="line"/>
      <point x="736" y="277"/>
      <point x="738" y="296"/>
      <point x="738" y="315" type="curve" smooth="yes"/>
      <point x="738" y="431"/>
      <point x="675" y="509"/>
      <point x="555" y="509" type="curve" smooth="yes"/>
      <point x="487" y="509"/>
      <point x="435" y="482"/>
      <point x="398" y="441" type="curve"/>
      <point x="372" y="484"/>
      <point x="319" y="509"/>
      <point x="253" y="509" type="curve" smooth="yes"/>
      <point x="183" y="509"/>
      <point x="117" y="488"/>
      <point x="62" y="444" type="curve"/>
      <point x="103" y="385" type="line"/>
      <point x="136" y="423"/>
      <point x="197" y="444"/>
      <point x="246" y="444" type="curve" smooth="yes"/>
      <point x="311" y="444"/>
      <point x="329" y="400"/>
      <point x="329" y="344" type="curve" smooth="yes"/>
      <point x="329" y="291" type="line"/>
      <point x="213" y="290"/>
      <point x="44" y="271"/>
    </contour>
    <contour>
      <point x="129" y="123" type="curve" smooth="yes"/>
      <point x="129" y="222"/>
      <point x="257" y="226"/>
      <point x="329" y="226" type="curve"/>
      <point x="329" y="194" type="line" smooth="yes"/>
      <point x="329" y="128"/>
      <point x="279" y="59"/>
      <point x="208" y="59" type="curve" smooth="yes"/>
      <point x="162" y="59"/>
      <point x="129" y="79"/>
    </contour>
    <contour>
      <point x="423" y="318" type="line"/>
      <point x="434" y="380"/>
      <point x="479" y="446"/>
      <point x="547" y="446" type="curve" smooth="yes"/>
      <point x="613" y="446"/>
      <point x="653" y="401"/>
      <point x="651" y="318" type="curve"/>
    </contour>
  </outline>
</glyph>
<glyph name="idotless" format="2">
  <advance width="252"/>
  <unicode hex="0131"/>
  <note>
dotlessi
</note>
  <anchor x="125" y="0" name="bottom"/>
  <anchor x="125" y="497" name="top"/>
  <outline>
    <contour>
      <point x="84" y="438" type="curve" smooth="yes"/>
      <point x="84" y="0" type="line"/>
      <point x="167" y="0" type="line"/>
      <point x="167" y="497" type="line"/>
      <point x="72" y="497" type="line"/>
      <point x="73" y="491"/>
      <point x="84" y="440"/>
    </contour>
  </outline>
</glyph>
<glyph name="kgreenlandic" format="2">
  <advance width="464"/>
  <unicode hex="0138"/>
  <outline>
    <contour>
      <point x="164" y="497" type="line"/>
      <point x="81" y="497" type="line"/>
      <point x="81" y="0" type="line"/>
      <point x="164" y="0" type="line"/>
      <point x="164" y="240" type="line"/>
      <point x="367" y="0" type="line"/>
      <point x="466" y="0" type="line"/>
      <point x="248" y="261" type="line"/>
      <point x="439" y="497" type="line"/>
      <point x="350" y="497" type="line"/>
      <point x="164" y="262" type="line"/>
    </contour>
  </outline>
</glyph>
<glyph name="Eng" format="2">
  <advance width="714"/>
  <unicode hex="014A"/>
  <outline>
    <contour>
      <point x="73" y="728" type="line"/>
      <point x="87" y="662" type="line"/>
      <point x="87" y="0" type="line"/>
      <point x="163" y="0" type="line"/>
      <point x="163" y="553" type="line" smooth="yes"/>
      <point x="163" y="574"/>
      <point x="162" y="597"/>
      <point x="160" y="618" type="curve"/>
      <point x="173" y="601"/>
      <point x="186" y="580"/>
      <point x="197" y="563" type="curve" smooth="yes"/>
      <point x="534" y="47" type="line"/>
      <point x="534" y="-36"/>
      <point x="525" y="-144"/>
      <point x="423" y="-159" type="curve"/>
      <point x="435" y="-211" type="line"/>
      <point x="597" y="-196"/>
      <point x="627" y="-78"/>
      <point x="627" y="61" type="curve" smooth="yes"/>
      <point x="627" y="728" type="line"/>
      <point x="551" y="728" type="line"/>
      <point x="551" y="248" type="line" smooth="yes"/>
      <point x="551" y="226"/>
      <point x="553" y="202"/>
      <point x="554" y="180" type="curve"/>
      <point x="541" y="199"/>
      <point x="527" y="220"/>
      <point x="515" y="239" type="curve" smooth="yes"/>
      <point x="197" y="728" type="line"/>
    </contour>
  </outline>
</glyph>
<glyph name="eng" format="2">
  <advance width="547"/>
  <unicode hex="014B"/>
  <outline>
    <contour>
      <point x="47" y="493" type="line"/>
      <point x="72" y="459"/>
      <point x="80" y="392"/>
      <point x="80" y="352" type="curve" smooth="yes"/>
      <point x="80" y="0" type="line"/>
      <point x="162" y="0" type="line"/>
      <point x="162" y="369" type="line"/>
      <point x="197" y="402"/>
      <point x="249" y="435"/>
      <point x="298" y="435" type="curve" smooth="yes"/>
      <point x="378" y="435"/>
      <point x="382" y="368"/>
      <point x="382" y="306" type="curve" smooth="yes"/>
      <point x="382" y="13" type="line" smooth="yes"/>
      <point x="382" y="-59"/>
      <point x="381" y="-150"/>
      <point x="308" y="-188" type="curve"/>
      <point x="322" y="-228" type="line"/>
      <point x="446" y="-211"/>
      <point x="464" y="-77"/>
      <point x="464" y="25" type="curve" smooth="yes"/>
      <point x="464" y="332" type="line" smooth="yes"/>
      <point x="464" y="435"/>
      <point x="422" y="509"/>
      <point x="312" y="509" type="curve" smooth="yes"/>
      <point x="254" y="509"/>
      <point x="197" y="474"/>
      <point x="157" y="434" type="curve"/>
      <point x="154" y="458"/>
      <point x="147" y="482"/>
      <point x="138" y="505" type="curve"/>
    </contour>
  </outline>
</glyph>
<glyph name="OE" format="2">
  <advance width="1048"/>
  <unicode hex="0152"/>
  <note>
OE
</note>
  <outline>
    <contour>
      <point x="598" y="94" type="curve"/>
      <point x="598" y="0" type="line"/>
      <point x="1021" y="0" type="line"/>
      <point x="1021" y="71" type="line"/>
      <point x="692" y="71" type="line"/>
      <point x="692" y="338" type="line"/>
      <point x="947" y="338" type="line"/>
      <point x="947" y="410" type="line"/>
      <point x="692" y="410" type="line"/>
      <point x="692" y="658" type="line"/>
      <point x="1021" y="658" type="line"/>
      <point x="1021" y="728" type="line"/>
      <point x="599" y="728" type="line"/>
      <point x="599" y="633" type="line"/>
      <point x="541" y="708"/>
      <point x="462" y="737"/>
      <point x="376" y="737" type="curve" smooth="yes"/>
      <point x="157" y="737"/>
      <point x="51" y="567"/>
      <point x="51" y="364" type="curve" smooth="yes"/>
      <point x="51" y="166"/>
      <point x="152" y="-12"/>
      <point x="370" y="-12" type="curve" smooth="yes"/>
      <point x="458" y="-12"/>
      <point x="537" y="20"/>
    </contour>
    <contour>
      <point x="373" y="58" type="curve" smooth="yes"/>
      <point x="204" y="58"/>
      <point x="149" y="220"/>
      <point x="149" y="363" type="curve" smooth="yes"/>
      <point x="149" y="506"/>
      <point x="204" y="669"/>
      <point x="373" y="669" type="curve" smooth="yes"/>
      <point x="542" y="669"/>
      <point x="598" y="508"/>
      <point x="598" y="364" type="curve" smooth="yes"/>
      <point x="598" y="220"/>
      <point x="543" y="58"/>
    </contour>
  </outline>
</glyph>
<glyph name="oe" format="2">
  <advance width="855"/>
  <unicode hex="0153"/>
  <note>
oe
</note>
  <outline>
    <contour>
      <point x="44" y="248" type="curve" smooth="yes"/>
      <point x="44" y="113"/>
      <point x="121" y="-13"/>
      <point x="268" y="-13" type="curve" smooth="yes"/>
      <point x="351" y="-13"/>
      <point x="411" y="26"/>
      <point x="449" y="85" type="curve"/>
      <point x="486" y="27"/>
      <point x="548" y="-13"/>
      <point x="636" y="-13" type="curve" smooth="yes"/>
      <point x="696" y="-13"/>
      <point x="757" y="5"/>
      <point x="804" y="43" type="curve"/>
      <point x="767" y="103" type="line"/>
      <point x="734" y="75"/>
      <point x="681" y="57"/>
      <point x="638" y="57" type="curve" smooth="yes"/>
      <point x="555" y="57"/>
      <point x="493" y="136"/>
      <point x="493" y="256" type="curve"/>
      <point x="809" y="256" type="line"/>
      <point x="812" y="277"/>
      <point x="814" y="296"/>
      <point x="814" y="315" type="curve" smooth="yes"/>
      <point x="814" y="431"/>
      <point x="751" y="509"/>
      <point x="631" y="509" type="curve" smooth="yes"/>
      <point x="548" y="509"/>
      <point x="487" y="468"/>
      <point x="450" y="409" type="curve"/>
      <point x="413" y="469"/>
      <point x="352" y="509"/>
      <point x="268" y="509" type="curve" smooth="yes"/>
      <point x="123" y="509"/>
      <point x="44" y="382"/>
    </contour>
    <contour>
      <point x="132" y="248" type="curve" smooth="yes"/>
      <point x="132" y="333"/>
      <point x="165" y="446"/>
      <point x="268" y="446" type="curve" smooth="yes"/>
      <point x="370" y="446"/>
      <point x="405" y="332"/>
      <point x="405" y="248" type="curve" smooth="yes"/>
      <point x="405" y="163"/>
      <point x="372" y="50"/>
      <point x="268" y="50" type="curve" smooth="yes"/>
      <point x="171" y="50"/>
      <point x="132" y="169"/>
    </contour>
    <contour>
      <point x="499" y="318" type="line"/>
      <point x="510" y="380"/>
      <point x="555" y="446"/>
      <point x="623" y="446" type="curve" smooth="yes"/>
      <point x="689" y="446"/>
      <point x="729" y="401"/>
      <point x="727" y="318" type="curve"/>
    </contour>
  </outline>
</glyph>
<glyph name="Schwa" format="2">
  <advance width="726"/>
  <unicode hex="018F"/>
  <outline>
    <contour>
      <point x="161" y="362" type="curve"/>
      <point x="62" y="363" type="line"/>
      <point x="60" y="346"/>
      <point x="59" y="329"/>
      <point x="59" y="313" type="curve" smooth="yes"/>
      <point x="59" y="136"/>
      <point x="158" y="-11"/>
      <point x="357" y="-11" type="curve" smooth="yes"/>
      <point x="575" y="-11"/>
      <point x="680" y="163"/>
      <point x="680" y="363" type="curve" smooth="yes"/>
      <point x="680" y="617"/>
      <point x="531" y="738"/>
      <point x="364" y="738" type="curve" smooth="yes"/>
      <point x="272" y="738"/>
      <point x="175" y="701"/>
      <point x="95" y="628" type="curve"/>
      <point x="150" y="566" type="line"/>
      <point x="213" y="633"/>
      <point x="290" y="668"/>
      <point x="361" y="668" type="curve" smooth="yes"/>
      <point x="480" y="668"/>
      <point x="583" y="572"/>
      <point x="583" y="363" type="curve" smooth="yes"/>
      <point x="583" y="219"/>
      <point x="528" y="57"/>
      <point x="358" y="57" type="curve" smooth="yes"/>
      <point x="215" y="57"/>
      <point x="155" y="173"/>
      <point x="155" y="295" type="curve" smooth="yes"/>
      <point x="155" y="317"/>
      <point x="157" y="340"/>
    </contour>
    <contour>
      <point x="62" y="363" type="line"/>
      <point x="97" y="292" type="line"/>
      <point x="627" y="292" type="line"/>
      <point x="627" y="363" type="line"/>
    </contour>
  </outline>
</glyph>
<glyph name="florin" format="2">
  <advance width="377"/>
  <unicode hex="0192"/>
  <note>
florin
</note>
  <guideline x="458" y="633" angle="0"/>
  <outline>
    <contour>
      <point x="331" y="697" type="curve" smooth="yes"/>
      <point x="289" y="697"/>
      <point x="249" y="683"/>
      <point x="222" y="656" type="curve" smooth="yes"/>
      <point x="171" y="605"/>
      <point x="164" y="528"/>
      <point x="144" y="483" type="curve" smooth="yes"/>
      <point x="126" y="443"/>
      <point x="111" y="449"/>
      <point x="53" y="446" type="curve"/>
      <point x="53" y="393" type="line"/>
      <point x="131" y="393" type="line"/>
      <point x="52" y="-63" type="line" smooth="yes"/>
      <point x="39" y="-140"/>
      <point x="11" y="-157"/>
      <point x="-41" y="-157" type="curve"/>
      <point x="-58" y="-217" type="line"/>
      <point x="-42" y="-220"/>
      <point x="-26" y="-222"/>
      <point x="-12" y="-222" type="curve" smooth="yes"/>
      <point x="80" y="-222"/>
      <point x="126" y="-151"/>
      <point x="146" y="-31" type="curve" smooth="yes"/>
      <point x="217" y="393" type="line"/>
      <point x="350" y="393" type="line"/>
      <point x="368" y="456" type="line"/>
      <point x="226" y="456" type="line"/>
      <point x="242" y="547"/>
      <point x="267" y="633"/>
      <point x="327" y="633" type="curve" smooth="yes"/>
      <point x="348" y="633"/>
      <point x="372" y="623"/>
      <point x="402" y="600" type="curve"/>
      <point x="422" y="670" type="line"/>
      <point x="395" y="688"/>
      <point x="363" y="697"/>
    </contour>
  </outline>
</glyph>
<glyph name="Nhookleft" format="2">
  <advance width="714"/>
  <unicode hex="019D"/>
  <outline>
    <contour>
      <point x="-23" y="-160" type="curve"/>
      <point x="-12" y="-211" type="line"/>
      <point x="155" y="-196"/>
      <point x="163" y="-78"/>
      <point x="163" y="61" type="curve" smooth="yes"/>
      <point x="163" y="553" type="line" smooth="yes"/>
      <point x="163" y="574"/>
      <point x="162" y="597"/>
      <point x="160" y="618" type="curve"/>
      <point x="173" y="601"/>
      <point x="186" y="580"/>
      <point x="197" y="563" type="curve" smooth="yes"/>
      <point x="568" y="-5" type="line"/>
      <point x="627" y="-5" type="line"/>
      <point x="627" y="728" type="line"/>
      <point x="551" y="728" type="line"/>
      <point x="551" y="248" type="line" smooth="yes"/>
      <point x="551" y="226"/>
      <point x="553" y="202"/>
      <point x="554" y="180" type="curve"/>
      <point x="541" y="199"/>
      <point x="527" y="220"/>
      <point x="515" y="239" type="curve" smooth="yes"/>
      <point x="197" y="728" type="line"/>
      <point x="73" y="728" type="line"/>
      <point x="74" y="725" type="line"/>
      <point x="72" y="728" type="line"/>
      <point x="87" y="662" type="line"/>
      <point x="87" y="55" type="line" smooth="yes"/>
      <point x="87" y="-31"/>
      <point x="91" y="-142"/>
    </contour>
  </outline>
</glyph>
<glyph name="jdotless" format="2">
  <advance width="251"/>
  <unicode hex="0237"/>
  <anchor x="123" y="497" name="top"/>
  <outline>
    <contour>
      <point x="167" y="497" type="line"/>
      <point x="71" y="497" type="line"/>
      <point x="84" y="438" type="line"/>
      <point x="84" y="13" type="line" smooth="yes"/>
      <point x="84" y="-59"/>
      <point x="84" y="-150"/>
      <point x="11" y="-188" type="curve"/>
      <point x="25" y="-228" type="line"/>
      <point x="149" y="-211"/>
      <point x="167" y="-77"/>
      <point x="167" y="25" type="curve" smooth="yes"/>
    </contour>
  </outline>
</glyph>
<glyph name="schwa" format="2">
  <advance width="494"/>
  <unicode hex="0259"/>
  <outline>
    <contour>
      <point x="224" y="-12" type="curve" smooth="yes"/>
      <point x="375" y="-12"/>
      <point x="450" y="122"/>
      <point x="450" y="254" type="curve" smooth="yes"/>
      <point x="450" y="383"/>
      <point x="376" y="510"/>
      <point x="219" y="510" type="curve" smooth="yes"/>
      <point x="159" y="510"/>
      <point x="98" y="492"/>
      <point x="51" y="454" type="curve"/>
      <point x="88" y="394" type="line"/>
      <point x="121" y="422"/>
      <point x="174" y="440"/>
      <point x="217" y="440" type="curve" smooth="yes"/>
      <point x="300" y="440"/>
      <point x="362" y="361"/>
      <point x="362" y="241" type="curve"/>
      <point x="46" y="241" type="line"/>
      <point x="43" y="220"/>
      <point x="41" y="201"/>
      <point x="41" y="182" type="curve" smooth="yes"/>
      <point x="41" y="66"/>
      <point x="104" y="-12"/>
    </contour>
    <contour>
      <point x="232" y="51" type="curve" smooth="yes"/>
      <point x="166" y="51"/>
      <point x="126" y="96"/>
      <point x="128" y="179" type="curve"/>
      <point x="356" y="179" type="line"/>
      <point x="345" y="117"/>
      <point x="300" y="51"/>
    </contour>
  </outline>
</glyph>
<glyph name="nhookleft" format="2">
  <advance width="551"/>
  <unicode hex="0272"/>
  <outline>
    <contour>
      <point x="11" y="-188" type="curve"/>
      <point x="25" y="-228" type="line"/>
      <point x="149" y="-211"/>
      <point x="166" y="-77"/>
      <point x="166" y="25" type="curve" smooth="yes"/>
      <point x="166" y="369" type="line"/>
      <point x="201" y="402"/>
      <point x="253" y="435"/>
      <point x="302" y="435" type="curve" smooth="yes"/>
      <point x="382" y="435"/>
      <point x="386" y="367"/>
      <point x="386" y="305" type="curve" smooth="yes"/>
      <point x="386" y="0" type="line"/>
      <point x="468" y="0" type="line"/>
      <point x="468" y="332" type="line" smooth="yes"/>
      <point x="468" y="435"/>
      <point x="426" y="509"/>
      <point x="316" y="509" type="curve" smooth="yes"/>
      <point x="258" y="509"/>
      <point x="201" y="474"/>
      <point x="161" y="434" type="curve"/>
      <point x="158" y="458"/>
      <point x="151" y="482"/>
      <point x="142" y="505" type="curve"/>
      <point x="51" y="493" type="line"/>
      <point x="76" y="459"/>
      <point x="84" y="392"/>
      <point x="84" y="352" type="curve" smooth="yes"/>
      <point x="84" y="13" type="line" smooth="yes"/>
      <point x="84" y="-59"/>
      <point x="84" y="-150"/>
    </contour>
  </outline>
</glyph>
<glyph name="circumflex" format="2">
  <advance width="291"/>
  <unicode hex="02C6"/>
  <note>
circumflex
</note>
  <anchor x="143" y="497" name="_top"/>
  <outline>
    <contour>
      <point x="143" y="661" type="line"/>
      <point x="222" y="579" type="line"/>
      <point x="291" y="579" type="line"/>
      <point x="185" y="734" type="line"/>
      <point x="102" y="734" type="line"/>
      <point x="0" y="580" type="line"/>
      <point x="67" y="580" type="line"/>
    </contour>
  </outline>
</glyph>
<glyph name="caron" format="2">
  <advance width="291"/>
  <unicode hex="02C7"/>
  <note>
caron
</note>
  <anchor x="143" y="497" name="_top"/>
  <outline>
    <contour>
      <point x="148" y="652" type="line"/>
      <point x="69" y="734" type="line"/>
      <point x="0" y="734" type="line"/>
      <point x="106" y="579" type="line"/>
      <point x="189" y="579" type="line"/>
      <point x="291" y="733" type="line"/>
      <point x="224" y="733" type="line"/>
    </contour>
  </outline>
</glyph>
<glyph name="breve" format="2">
  <advance width="279"/>
  <unicode hex="02D8"/>
  <note>
breve
</note>
  <anchor x="140" y="497" name="_top"/>
  <outline>
    <contour>
      <point x="279" y="728" type="curve"/>
      <point x="230" y="728" type="line"/>
      <point x="219" y="681"/>
      <point x="188" y="658"/>
      <point x="140" y="658" type="curve" smooth="yes"/>
      <point x="92" y="658"/>
      <point x="60" y="680"/>
      <point x="50" y="728" type="curve"/>
      <point x="0" y="728" type="line"/>
      <point x="9" y="646"/>
      <point x="53" y="589"/>
      <point x="140" y="589" type="curve" smooth="yes"/>
      <point x="230" y="589"/>
      <point x="270" y="644"/>
    </contour>
  </outline>
</glyph>
<glyph name="ogonek" format="2">
  <advance width="279"/>
  <unicode hex="02DB"/>
  <note>
ogonek
</note>
  <anchor x="172" y="0" name="_ogonek"/>
  <outline>
    <contour>
      <point x="254" y="-152" type="curve"/>
      <point x="237" y="-115" type="line"/>
      <point x="216" y="-128"/>
      <point x="182" y="-147"/>
      <point x="157" y="-147" type="curve" smooth="yes"/>
      <point x="128" y="-147"/>
      <point x="108" y="-132"/>
      <point x="108" y="-102" type="curve" smooth="yes"/>
      <point x="108" y="-47"/>
      <point x="190" y="-9"/>
      <point x="231" y="14" type="curve"/>
      <point x="211" y="25" type="line"/>
      <point x="147" y="14"/>
      <point x="25" y="-42"/>
      <point x="25" y="-118" type="curve" smooth="yes"/>
      <point x="25" y="-175"/>
      <point x="68" y="-202"/>
      <point x="121" y="-202" type="curve" smooth="yes"/>
      <point x="170" y="-202"/>
      <point x="216" y="-181"/>
    </contour>
  </outline>
</glyph>
<glyph name="tilde" format="2">
  <advance width="357"/>
  <unicode hex="02DC"/>
  <note>
tilde
</note>
  <anchor x="181" y="497" name="_top"/>
  <outline>
    <contour>
      <point x="337" y="701" type="curve"/>
      <point x="290" y="701" type="line"/>
      <point x="285" y="686"/>
      <point x="270" y="675"/>
      <point x="254" y="675" type="curve" smooth="yes"/>
      <point x="214" y="675"/>
      <point x="167" y="714"/>
      <point x="114" y="714" type="curve" smooth="yes"/>
      <point x="59" y="714"/>
      <point x="26" y="663"/>
      <point x="20" y="614" type="curve"/>
      <point x="69" y="614" type="line"/>
      <point x="75" y="628"/>
      <point x="86" y="641"/>
      <point x="103" y="641" type="curve" smooth="yes"/>
      <point x="154" y="641"/>
      <point x="195" y="602"/>
      <point x="252" y="602" type="curve" smooth="yes"/>
      <point x="304" y="602"/>
      <point x="332" y="656"/>
    </contour>
  </outline>
</glyph>
<glyph name="pi" format="2">
  <advance width="669"/>
  <unicode hex="03C0"/>
  <note>
pi
</note>
  <outline>
    <contour>
      <point x="269" y="469" type="curve"/>
      <point x="192" y="469" type="line"/>
      <point x="192" y="422"/>
      <point x="192" y="350"/>
      <point x="192" y="314" type="curve" smooth="yes"/>
      <point x="192" y="115"/>
      <point x="185" y="66"/>
      <point x="93" y="15" type="curve"/>
      <point x="114" y="-24" type="line"/>
      <point x="259" y="24"/>
      <point x="269" y="103"/>
      <point x="269" y="320" type="curve" smooth="yes"/>
      <point x="269" y="355"/>
      <point x="269" y="425"/>
    </contour>
    <contour>
      <point x="470" y="469" type="curve"/>
      <point x="392" y="469" type="line"/>
      <point x="387" y="385"/>
      <point x="382" y="279"/>
      <point x="382" y="215" type="curve" smooth="yes"/>
      <point x="382" y="78"/>
      <point x="405" y="-5"/>
      <point x="502" y="-5" type="curve" smooth="yes"/>
      <point x="538" y="-5"/>
      <point x="569" y="7"/>
      <point x="593" y="28" type="curve"/>
      <point x="571" y="67" type="line"/>
      <point x="553" y="59"/>
      <point x="538" y="55"/>
      <point x="526" y="55" type="curve" smooth="yes"/>
      <point x="474" y="55"/>
      <point x="459" y="118"/>
      <point x="459" y="224" type="curve" smooth="yes"/>
      <point x="459" y="284"/>
      <point x="464" y="387"/>
    </contour>
    <contour>
      <point x="623" y="478" type="curve"/>
      <point x="598" y="519" type="line"/>
      <point x="566" y="500"/>
      <point x="536" y="497"/>
      <point x="500" y="497" type="curve" smooth="yes"/>
      <point x="200" y="497" type="line" smooth="yes"/>
      <point x="103" y="497"/>
      <point x="43" y="442"/>
      <point x="38" y="362" type="curve"/>
      <point x="85" y="349" type="line"/>
      <point x="96" y="395"/>
      <point x="133" y="429"/>
      <point x="182" y="429" type="curve" smooth="yes"/>
      <point x="509" y="429" type="line" smooth="yes"/>
      <point x="554" y="429"/>
      <point x="596" y="444"/>
    </contour>
  </outline>
</glyph>
<glyph name="Germandbls" format="2">
  <advance width="646"/>
  <unicode hex="1E9E"/>
  <outline>
    <contour>
      <point x="72" y="728" type="line"/>
      <point x="86" y="662" type="line"/>
      <point x="86" y="0" type="line"/>
      <point x="179" y="0" type="line"/>
      <point x="179" y="659" type="line"/>
      <point x="541" y="659" type="line"/>
      <point x="541" y="728" type="line"/>
    </contour>
    <contour>
      <point x="294" y="328" type="line"/>
      <point x="378" y="339" type="line"/>
      <point x="593" y="672" type="line"/>
      <point x="541" y="728" type="line"/>
    </contour>
    <contour>
      <point x="388" y="398" type="curve"/>
      <point x="294" y="328" type="line"/>
      <point x="315" y="329"/>
      <point x="334" y="330"/>
      <point x="352" y="330" type="curve" smooth="yes"/>
      <point x="504" y="330"/>
      <point x="551" y="277"/>
      <point x="551" y="185" type="curve" smooth="yes"/>
      <point x="551" y="103"/>
      <point x="480" y="60"/>
      <point x="403" y="60" type="curve" smooth="yes"/>
      <point x="350" y="60"/>
      <point x="293" y="81"/>
      <point x="254" y="124" type="curve"/>
      <point x="218" y="42" type="line"/>
      <point x="278" y="5"/>
      <point x="345" y="-12"/>
      <point x="408" y="-12" type="curve" smooth="yes"/>
      <point x="538" y="-12"/>
      <point x="651" y="63"/>
      <point x="651" y="198" type="curve" smooth="yes"/>
      <point x="651" y="358"/>
      <point x="495" y="401"/>
    </contour>
  </outline>
</glyph>
<glyph name="endash" format="2">
  <advance width="485"/>
  <unicode hex="2013"/>
  <note>
endash
</note>
  <outline>
    <contour>
      <point x="0" y="292" type="line"/>
      <point x="0" y="230" type="line"/>
      <point x="485" y="230" type="line"/>
      <point x="485" y="292" type="line"/>
    </contour>
  </outline>
</glyph>
<glyph name="quoteright" format="2">
  <advance width="286"/>
  <unicode hex="2019"/>
  <note>
quoteright
</note>
  <outline>
    <contour>
      <point x="76" y="516" type="curve"/>
      <point x="110" y="482" type="line"/>
      <point x="164" y="521"/>
      <point x="212" y="579"/>
      <point x="212" y="648" type="curve" smooth="yes"/>
      <point x="212" y="693"/>
      <point x="185" y="733"/>
      <point x="137" y="733" type="curve" smooth="yes"/>
      <point x="103" y="733"/>
      <point x="75" y="707"/>
      <point x="75" y="673" type="curve" smooth="yes"/>
      <point x="75" y="623"/>
      <point x="125" y="614"/>
      <point x="125" y="587" type="curve" smooth="yes"/>
      <point x="125" y="561"/>
      <point x="93" y="534"/>
    </contour>
  </outline>
</glyph>
<glyph name="quotesinglbase" format="2">
  <advance width="276"/>
  <unicode hex="201A"/>
  <note>
quotesinglbase
</note>
  <outline>
    <contour>
      <point x="70" y="-93" type="curve"/>
      <point x="104" y="-127" type="line"/>
      <point x="158" y="-88"/>
      <point x="206" y="-30"/>
      <point x="206" y="39" type="curve" smooth="yes"/>
      <point x="206" y="84"/>
      <point x="179" y="124"/>
      <point x="131" y="124" type="curve" smooth="yes"/>
      <point x="97" y="124"/>
      <point x="69" y="98"/>
      <point x="69" y="64" type="curve" smooth="yes"/>
      <point x="69" y="14"/>
      <point x="119" y="5"/>
      <point x="119" y="-22" type="curve" smooth="yes"/>
      <point x="119" y="-48"/>
      <point x="87" y="-75"/>
    </contour>
  </outline>
</glyph>
<glyph name="quotedblright" format="2">
  <advance width="487"/>
  <unicode hex="201D"/>
  <note>
quotedblright
</note>
  <outline>
    <contour>
      <point x="80" y="516" type="curve"/>
      <point x="114" y="482" type="line"/>
      <point x="168" y="521"/>
      <point x="216" y="579"/>
      <point x="216" y="648" type="curve" smooth="yes"/>
      <point x="216" y="693"/>
      <point x="189" y="733"/>
      <point x="141" y="733" type="curve" smooth="yes"/>
      <point x="107" y="733"/>
      <point x="79" y="707"/>
      <point x="79" y="673" type="curve" smooth="yes"/>
      <point x="79" y="623"/>
      <point x="129" y="614"/>
      <point x="129" y="587" type="curve" smooth="yes"/>
      <point x="129" y="561"/>
      <point x="97" y="534"/>
    </contour>
    <contour>
      <point x="275" y="516" type="curve"/>
      <point x="309" y="482" type="line"/>
      <point x="363" y="521"/>
      <point x="411" y="579"/>
      <point x="411" y="648" type="curve" smooth="yes"/>
      <point x="411" y="693"/>
      <point x="384" y="733"/>
      <point x="336" y="733" type="curve" smooth="yes"/>
      <point x="302" y="733"/>
      <point x="274" y="707"/>
      <point x="274" y="673" type="curve" smooth="yes"/>
      <point x="274" y="623"/>
      <point x="324" y="614"/>
      <point x="324" y="587" type="curve" smooth="yes"/>
      <point x="324" y="561"/>
      <point x="292" y="534"/>
    </contour>
  </outline>
</glyph>
<glyph name="daggerdbl" format="2">
  <advance width="523"/>
  <unicode hex="2021"/>
  <note>
daggerdbl
</note>
  <outline>
    <contour>
      <point x="264" y="740" type="line"/>
      <point x="217" y="658" type="line"/>
      <point x="243" y="504" type="line"/>
      <point x="117" y="529" type="line"/>
      <point x="51" y="485" type="line"/>
      <point x="117" y="440" type="line"/>
      <point x="243" y="462" type="line"/>
      <point x="218" y="309" type="line"/>
      <point x="244" y="135" type="line"/>
      <point x="117" y="155" type="line"/>
      <point x="51" y="117" type="line"/>
      <point x="117" y="68" type="line"/>
      <point x="243" y="93" type="line"/>
      <point x="217" y="-61" type="line"/>
      <point x="270" y="-139" type="line"/>
      <point x="316" y="-61" type="line"/>
      <point x="293" y="93" type="line"/>
      <point x="415" y="68" type="line"/>
      <point x="482" y="112" type="line"/>
      <point x="415" y="155" type="line"/>
      <point x="292" y="135" type="line"/>
      <point x="316" y="309" type="line"/>
      <point x="289" y="462" type="line"/>
      <point x="418" y="440" type="line"/>
      <point x="482" y="481" type="line"/>
      <point x="418" y="529" type="line"/>
      <point x="289" y="504" type="line"/>
      <point x="316" y="658" type="line"/>
    </contour>
  </outline>
</glyph>
<glyph name="fraction" format="2">
  <advance width="219"/>
  <unicode hex="2044"/>
  <note>
fraction
</note>
  <outline>
    <contour>
      <point x="263" y="730" type="line"/>
      <point x="-110" y="-7" type="line"/>
      <point x="-46" y="-7" type="line"/>
      <point x="329" y="730" type="line"/>
    </contour>
  </outline>
</glyph>
<glyph name="zerosuperior" format="2">
  <advance width="455"/>
  <unicode hex="2070"/>
  <outline>
    <contour>
      <point x="233" y="928" type="curve" smooth="yes"/>
      <point x="92" y="928"/>
      <point x="28" y="815"/>
      <point x="28" y="676" type="curve" smooth="yes"/>
      <point x="28" y="538"/>
      <point x="82" y="423"/>
      <point x="221" y="423" type="curve" smooth="yes"/>
      <point x="361" y="423"/>
      <point x="426" y="538"/>
      <point x="426" y="676" type="curve" smooth="yes"/>
      <point x="426" y="814"/>
      <point x="373" y="928"/>
    </contour>
    <contour>
      <point x="227" y="865" type="curve" smooth="yes"/>
      <point x="330" y="865"/>
      <point x="346" y="766"/>
      <point x="346" y="676" type="curve" smooth="yes"/>
      <point x="346" y="585"/>
      <point x="330" y="486"/>
      <point x="227" y="486" type="curve" smooth="yes"/>
      <point x="125" y="486"/>
      <point x="107" y="585"/>
      <point x="107" y="676" type="curve" smooth="yes"/>
      <point x="107" y="765"/>
      <point x="126" y="865"/>
    </contour>
  </outline>
</glyph>
<glyph name="sixsuperior" format="2">
  <advance width="455"/>
  <unicode hex="2076"/>
  <outline>
    <contour>
      <point x="336" y="949" type="line"/>
      <point x="188" y="900"/>
      <point x="57" y="776"/>
      <point x="57" y="604" type="curve" smooth="yes"/>
      <point x="57" y="482"/>
      <point x="137" y="425"/>
      <point x="217" y="425" type="curve" smooth="yes"/>
      <point x="327" y="425"/>
      <point x="389" y="513"/>
      <point x="389" y="596" type="curve" smooth="yes"/>
      <point x="389" y="685"/>
      <point x="322" y="741"/>
      <point x="245" y="741" type="curve" smooth="yes"/>
      <point x="207" y="741"/>
      <point x="167" y="728"/>
      <point x="131" y="699" type="curve"/>
      <point x="123" y="637" type="line"/>
      <point x="157" y="663"/>
      <point x="194" y="677"/>
      <point x="226" y="677" type="curve" smooth="yes"/>
      <point x="273" y="677"/>
      <point x="309" y="647"/>
      <point x="309" y="584" type="curve" smooth="yes"/>
      <point x="309" y="529"/>
      <point x="281" y="482"/>
      <point x="223" y="482" type="curve" smooth="yes"/>
      <point x="166" y="482"/>
      <point x="137" y="529"/>
      <point x="137" y="607" type="curve" smooth="yes"/>
      <point x="137" y="714"/>
      <point x="182" y="827"/>
      <point x="355" y="896" type="curve"/>
    </contour>
  </outline>
</glyph>
<glyph name="eightsuperior" format="2">
  <advance width="455"/>
  <unicode hex="2078"/>
  <outline>
    <contour>
      <point x="377" y="811" type="curve" smooth="yes"/>
      <point x="377" y="890"/>
      <point x="308" y="928"/>
      <point x="236" y="928" type="curve" smooth="yes"/>
      <point x="158" y="928"/>
      <point x="76" y="883"/>
      <point x="76" y="796" type="curve" smooth="yes"/>
      <point x="76" y="639"/>
      <point x="314" y="659"/>
      <point x="314" y="559" type="curve" smooth="yes"/>
      <point x="314" y="508"/>
      <point x="268" y="483"/>
      <point x="221" y="483" type="curve" smooth="yes"/>
      <point x="175" y="483"/>
      <point x="129" y="508"/>
      <point x="129" y="556" type="curve" smooth="yes"/>
      <point x="129" y="592"/>
      <point x="139" y="634"/>
      <point x="210" y="665" type="curve"/>
      <point x="183" y="707" type="line"/>
      <point x="100" y="672"/>
      <point x="61" y="617"/>
      <point x="61" y="554" type="curve" smooth="yes"/>
      <point x="61" y="468"/>
      <point x="141" y="425"/>
      <point x="223" y="425" type="curve" smooth="yes"/>
      <point x="308" y="425"/>
      <point x="394" y="471"/>
      <point x="394" y="566" type="curve" smooth="yes"/>
      <point x="394" y="733"/>
      <point x="154" y="701"/>
      <point x="154" y="803" type="curve" smooth="yes"/>
      <point x="154" y="850"/>
      <point x="195" y="872"/>
      <point x="235" y="872" type="curve" smooth="yes"/>
      <point x="275" y="872"/>
      <point x="314" y="851"/>
      <point x="314" y="808" type="curve" smooth="yes"/>
      <point x="314" y="772"/>
      <point x="295" y="732"/>
      <point x="241" y="716" type="curve"/>
      <point x="273" y="675" type="line"/>
      <point x="354" y="706"/>
      <point x="377" y="765"/>
    </contour>
  </outline>
</glyph>
<glyph name="nmod" format="2">
  <advance width="378"/>
  <unicode hex="207F"/>
  <outline>
    <contour>
      <point x="101" y="728" type="curve"/>
      <point x="32" y="720" type="line"/>
      <point x="49" y="698"/>
      <point x="54" y="653"/>
      <point x="54" y="626" type="curve" smooth="yes"/>
      <point x="54" y="392" type="line"/>
      <point x="117" y="392" type="line"/>
      <point x="117" y="632" type="line"/>
      <point x="140" y="654"/>
      <point x="175" y="676"/>
      <point x="207" y="676" type="curve" smooth="yes"/>
      <point x="261" y="676"/>
      <point x="263" y="630"/>
      <point x="263" y="589" type="curve" smooth="yes"/>
      <point x="263" y="392" type="line"/>
      <point x="326" y="392" type="line"/>
      <point x="326" y="617" type="line" smooth="yes"/>
      <point x="326" y="686"/>
      <point x="293" y="731"/>
      <point x="220" y="731" type="curve" smooth="yes"/>
      <point x="181" y="731"/>
      <point x="139" y="707"/>
      <point x="114" y="681" type="curve"/>
      <point x="112" y="697"/>
      <point x="107" y="713"/>
    </contour>
  </outline>
</glyph>
<glyph name="colonsign" format="2">
  <advance width="646"/>
  <unicode hex="20A1"/>
  <outline>
    <contour>
      <point x="51" y="330" type="curve" smooth="yes"/>
      <point x="51" y="99"/>
      <point x="192" y="-13"/>
      <point x="347" y="-13" type="curve" smooth="yes"/>
      <point x="419" y="-13"/>
      <point x="495" y="14"/>
      <point x="560" y="67" type="curve"/>
      <point x="518" y="125" type="line"/>
      <point x="463" y="79"/>
      <point x="407" y="58"/>
      <point x="356" y="58" type="curve" smooth="yes"/>
      <point x="242" y="58"/>
      <point x="153" y="157"/>
      <point x="153" y="335" type="curve" smooth="yes"/>
      <point x="153" y="525"/>
      <point x="257" y="624"/>
      <point x="378" y="624" type="curve" smooth="yes"/>
      <point x="426" y="624"/>
      <point x="477" y="616"/>
      <point x="524" y="581" type="curve"/>
      <point x="544" y="655" type="line"/>
      <point x="494" y="683"/>
      <point x="433" y="697"/>
      <point x="378" y="697" type="curve" smooth="yes"/>
      <point x="213" y="697"/>
      <point x="51" y="580"/>
    </contour>
    <contour>
      <point x="119" y="-26" type="line"/>
      <point x="173" y="-57" type="line"/>
      <point x="476" y="774" type="line"/>
      <point x="421" y="805" type="line"/>
    </contour>
    <contour>
      <point x="239" y="-93" type="line"/>
      <point x="294" y="-124" type="line"/>
      <point x="596" y="707" type="line"/>
      <point x="542" y="738" type="line"/>
    </contour>
  </outline>
</glyph>
<glyph name="naira" format="2">
  <advance width="714"/>
  <unicode hex="20A6"/>
  <outline>
    <contour>
      <point x="224" y="697" type="line"/>
      <point x="100" y="697" type="line"/>
      <point x="114" y="631" type="line"/>
      <point x="114" y="0" type="line"/>
      <point x="190" y="0" type="line"/>
      <point x="190" y="522" type="line" smooth="yes"/>
      <point x="190" y="543"/>
      <point x="189" y="566"/>
      <point x="187" y="587" type="curve"/>
      <point x="200" y="570"/>
      <point x="213" y="549"/>
      <point x="224" y="532" type="curve" smooth="yes"/>
      <point x="555" y="-5" type="line"/>
      <point x="614" y="-5" type="line"/>
      <point x="614" y="697" type="line"/>
      <point x="538" y="697" type="line"/>
      <point x="538" y="248" type="line" smooth="yes"/>
      <point x="538" y="226"/>
      <point x="540" y="202"/>
      <point x="541" y="180" type="curve"/>
      <point x="528" y="199"/>
      <point x="514" y="220"/>
      <point x="502" y="239" type="curve" smooth="yes"/>
    </contour>
    <contour>
      <point x="37" y="482" type="line"/>
      <point x="27" y="420" type="line"/>
      <point x="677" y="420" type="line"/>
      <point x="687" y="482" type="line"/>
    </contour>
    <contour>
      <point x="37" y="346" type="line"/>
      <point x="27" y="284" type="line"/>
      <point x="677" y="284" type="line"/>
      <point x="687" y="346" type="line"/>
    </contour>
  </outline>
</glyph>
<glyph name="dong" format="2">
  <advance width="600"/>
  <unicode hex="20AB"/>
  <anchor x="390" y="627" name="center"/>
  <anchor x="356" y="525" name="topright"/>
  <outline>
    <contour>
      <point x="85" y="-82" type="line"/>
      <point x="75" y="-144" type="line"/>
      <point x="507" y="-144" type="line"/>
      <point x="517" y="-82" type="line"/>
    </contour>
    <component base="dcroat" xOffset="10"/>
  </outline>
</glyph>
<glyph name="euro" format="2">
  <advance width="646"/>
  <unicode hex="20AC"/>
  <note>
Euro
</note>
  <outline>
    <contour>
      <point x="111" y="330" type="curve" smooth="yes"/>
      <point x="111" y="99"/>
      <point x="252" y="-13"/>
      <point x="407" y="-13" type="curve" smooth="yes"/>
      <point x="479" y="-13"/>
      <point x="555" y="14"/>
      <point x="620" y="67" type="curve"/>
      <point x="578" y="125" type="line"/>
      <point x="523" y="79"/>
      <point x="467" y="58"/>
      <point x="416" y="58" type="curve" smooth="yes"/>
      <point x="302" y="58"/>
      <point x="213" y="157"/>
      <point x="213" y="335" type="curve" smooth="yes"/>
      <point x="213" y="525"/>
      <point x="317" y="627"/>
      <point x="438" y="627" type="curve" smooth="yes"/>
      <point x="486" y="627"/>
      <point x="537" y="609"/>
      <point x="584" y="572" type="curve"/>
      <point x="604" y="655" type="line"/>
      <point x="554" y="683"/>
      <point x="493" y="697"/>
      <point x="438" y="697" type="curve" smooth="yes"/>
      <point x="273" y="697"/>
      <point x="111" y="580"/>
    </contour>
    <contour>
      <point x="62" y="432" type="line"/>
      <point x="52" y="370" type="line"/>
      <point x="548" y="370" type="line"/>
      <point x="558" y="432" type="line"/>
    </contour>
    <contour>
      <point x="40" y="296" type="line"/>
      <point x="30" y="234" type="line"/>
      <point x="526" y="234" type="line"/>
      <point x="536" y="296" type="line"/>
    </contour>
  </outline>
</glyph>
<glyph name="cedi" format="2">
  <advance width="610"/>
  <unicode hex="20B5"/>
  <outline>
    <contour>
      <point x="51" y="330" type="curve" smooth="yes"/>
      <point x="51" y="99"/>
      <point x="192" y="-13"/>
      <point x="347" y="-13" type="curve" smooth="yes"/>
      <point x="419" y="-13"/>
      <point x="495" y="14"/>
      <point x="560" y="67" type="curve"/>
      <point x="518" y="125" type="line"/>
      <point x="463" y="79"/>
      <point x="407" y="58"/>
      <point x="356" y="58" type="curve" smooth="yes"/>
      <point x="242" y="58"/>
      <point x="153" y="157"/>
      <point x="153" y="335" type="curve" smooth="yes"/>
      <point x="153" y="525"/>
      <point x="257" y="627"/>
      <point x="378" y="627" type="curve" smooth="yes"/>
      <point x="426" y="627"/>
      <point x="477" y="609"/>
      <point x="524" y="572" type="curve"/>
      <point x="544" y="655" type="line"/>
      <point x="494" y="683"/>
      <point x="433" y="697"/>
      <point x="378" y="697" type="curve" smooth="yes"/>
      <point x="213" y="697"/>
      <point x="51" y="580"/>
    </contour>
    <contour>
      <point x="308" y="-102" type="line"/>
      <point x="370" y="-112" type="line"/>
      <point x="370" y="794" type="line"/>
      <point x="308" y="804" type="line"/>
    </contour>
  </outline>
</glyph>
<glyph name="liraTurkish" format="2">
  <advance width="574"/>
  <unicode hex="20BA"/>
  <outline>
    <contour>
      <point x="112" y="697" type="line"/>
      <point x="126" y="631" type="line"/>
      <point x="126" y="0" type="line"/>
      <point x="286" y="0" type="line" smooth="yes"/>
      <point x="466" y="0"/>
      <point x="526" y="110"/>
      <point x="526" y="273" type="curve"/>
      <point x="432" y="273" type="line"/>
      <point x="432" y="167"/>
      <point x="426" y="69"/>
      <point x="287" y="69" type="curve" smooth="yes"/>
      <point x="219" y="69" type="line"/>
      <point x="219" y="697" type="line"/>
    </contour>
    <contour>
      <point x="37" y="385" type="line"/>
      <point x="27" y="314" type="line"/>
      <point x="357" y="424" type="line"/>
      <point x="367" y="495" type="line"/>
    </contour>
    <contour>
      <point x="37" y="249" type="line"/>
      <point x="27" y="178" type="line"/>
      <point x="357" y="288" type="line"/>
      <point x="367" y="359" type="line"/>
    </contour>
  </outline>
</glyph>
<glyph name="manat" format="2">
  <advance width="782"/>
  <unicode hex="20BC"/>
  <outline>
    <contour>
      <point x="596" y="0" type="line"/>
      <point x="694" y="0" type="line"/>
      <point x="694" y="324" type="line" smooth="yes"/>
      <point x="694" y="528"/>
      <point x="605" y="697"/>
      <point x="391" y="697" type="curve" smooth="yes"/>
      <point x="177" y="697"/>
      <point x="88" y="528"/>
      <point x="88" y="324" type="curve" smooth="yes"/>
      <point x="88" y="0" type="line"/>
      <point x="186" y="0" type="line"/>
      <point x="186" y="311" type="line" smooth="yes"/>
      <point x="186" y="457"/>
      <point x="223" y="628"/>
      <point x="391" y="628" type="curve" smooth="yes"/>
      <point x="559" y="628"/>
      <point x="596" y="457"/>
      <point x="596" y="311" type="curve" smooth="yes"/>
    </contour>
    <contour>
      <point x="357" y="108" type="line"/>
      <point x="419" y="98" type="line"/>
      <point x="419" y="794" type="line"/>
      <point x="357" y="804" type="line"/>
    </contour>
  </outline>
</glyph>
<glyph name="ruble" format="2">
  <advance width="605"/>
  <unicode hex="20BD"/>
  <outline>
    <contour>
      <point x="86" y="697" type="line"/>
      <point x="101" y="631" type="line"/>
      <point x="101" y="0" type="line"/>
      <point x="194" y="0" type="line"/>
      <point x="194" y="277" type="line"/>
      <point x="305" y="277" type="line" smooth="yes"/>
      <point x="440" y="277"/>
      <point x="549" y="341"/>
      <point x="549" y="487" type="curve" smooth="yes"/>
      <point x="549" y="644"/>
      <point x="448" y="697"/>
      <point x="304" y="697" type="curve" smooth="yes"/>
    </contour>
    <contour>
      <point x="194" y="628" type="line"/>
      <point x="304" y="628" type="line" smooth="yes"/>
      <point x="400" y="628"/>
      <point x="452" y="581"/>
      <point x="452" y="487" type="curve" smooth="yes"/>
      <point x="452" y="396"/>
      <point x="395" y="344"/>
      <point x="303" y="344" type="curve" smooth="yes"/>
      <point x="194" y="344" type="line"/>
    </contour>
    <contour>
      <point x="39" y="186" type="line"/>
      <point x="29" y="124" type="line"/>
      <point x="353" y="124" type="line"/>
      <point x="363" y="186" type="line"/>
    </contour>
    <contour>
      <point x="39" y="344" type="line"/>
      <point x="29" y="277" type="line"/>
      <point x="173" y="277" type="line"/>
      <point x="183" y="344" type="line"/>
    </contour>
  </outline>
</glyph>
<glyph name="literSign" format="2">
  <advance width="429"/>
  <unicode hex="2113"/>
  <outline>
    <contour>
      <point x="255" y="770" type="curve" smooth="yes"/>
      <point x="180" y="770"/>
      <point x="103" y="721"/>
      <point x="103" y="594" type="curve" smooth="yes"/>
      <point x="103" y="118" type="line" smooth="yes"/>
      <point x="103" y="36"/>
      <point x="132" y="-11"/>
      <point x="217" y="-11" type="curve" smooth="yes"/>
      <point x="255" y="-11"/>
      <point x="283" y="-3"/>
      <point x="316" y="7" type="curve"/>
      <point x="302" y="63" type="line"/>
      <point x="282" y="58"/>
      <point x="260" y="53"/>
      <point x="239" y="53" type="curve" smooth="yes"/>
      <point x="196" y="53"/>
      <point x="186" y="77"/>
      <point x="186" y="116" type="curve" smooth="yes"/>
      <point x="186" y="628" type="line" smooth="yes"/>
      <point x="186" y="688"/>
      <point x="217" y="708"/>
      <point x="249" y="708" type="curve" smooth="yes"/>
      <point x="284" y="708"/>
      <point x="308" y="678"/>
      <point x="308" y="626" type="curve" smooth="yes"/>
      <point x="308" y="424"/>
      <point x="218" y="323"/>
      <point x="10" y="247" type="curve"/>
      <point x="28" y="194" type="line"/>
      <point x="264" y="256"/>
      <point x="390" y="417"/>
      <point x="390" y="613" type="curve" smooth="yes"/>
      <point x="390" y="725"/>
      <point x="324" y="770"/>
    </contour>
  </outline>
</glyph>
<glyph name="numero" format="2">
  <advance width="1076"/>
  <unicode hex="2116"/>
  <outline>
    <contour>
      <point x="207" y="697" type="line"/>
      <point x="83" y="697" type="line"/>
      <point x="97" y="631" type="line"/>
      <point x="97" y="0" type="line"/>
      <point x="173" y="0" type="line"/>
      <point x="173" y="522" type="line" smooth="yes"/>
      <point x="173" y="543"/>
      <point x="172" y="566"/>
      <point x="170" y="587" type="curve"/>
      <point x="183" y="570"/>
      <point x="196" y="549"/>
      <point x="207" y="532" type="curve" smooth="yes"/>
      <point x="558" y="-5" type="line"/>
      <point x="617" y="-5" type="line"/>
      <point x="617" y="697" type="line"/>
      <point x="541" y="697" type="line"/>
      <point x="541" y="248" type="line" smooth="yes"/>
      <point x="541" y="226"/>
      <point x="543" y="202"/>
      <point x="544" y="180" type="curve"/>
      <point x="531" y="199"/>
      <point x="517" y="220"/>
      <point x="505" y="239" type="curve" smooth="yes"/>
    </contour>
    <contour>
      <point x="874" y="458" type="curve" smooth="yes"/>
      <point x="777" y="458"/>
      <point x="717" y="378"/>
      <point x="717" y="287" type="curve" smooth="yes"/>
      <point x="717" y="195"/>
      <point x="768" y="116"/>
      <point x="866" y="116" type="curve" smooth="yes"/>
      <point x="964" y="116"/>
      <point x="1023" y="195"/>
      <point x="1023" y="287" type="curve" smooth="yes"/>
      <point x="1023" y="379"/>
      <point x="972" y="458"/>
    </contour>
    <contour>
      <point x="870" y="406" type="curve" smooth="yes"/>
      <point x="931" y="406"/>
      <point x="953" y="338"/>
      <point x="953" y="287" type="curve" smooth="yes"/>
      <point x="953" y="236"/>
      <point x="932" y="168"/>
      <point x="870" y="168" type="curve" smooth="yes"/>
      <point x="811" y="168"/>
      <point x="786" y="238"/>
      <point x="786" y="287" type="curve" smooth="yes"/>
      <point x="786" y="339"/>
      <point x="807" y="406"/>
    </contour>
    <contour>
      <point x="751" y="50" type="line"/>
      <point x="751" y="0" type="line"/>
      <point x="990" y="0" type="line"/>
      <point x="990" y="50" type="line"/>
    </contour>
  </outline>
</glyph>
<glyph name="partialdiff" format="2">
  <advance width="555"/>
  <unicode hex="2202"/>
  <note>
partialdiff
</note>
  <outline>
    <contour>
      <point x="388" y="355" type="curve"/>
      <point x="363" y="382"/>
      <point x="321" y="410"/>
      <point x="252" y="410" type="curve" smooth="yes"/>
      <point x="175" y="410"/>
      <point x="47" y="349"/>
      <point x="47" y="195" type="curve" smooth="yes"/>
      <point x="47" y="33"/>
      <point x="169" y="-10"/>
      <point x="245" y="-10" type="curve" smooth="yes"/>
      <point x="338" y="-10"/>
      <point x="487" y="57"/>
      <point x="487" y="333" type="curve" smooth="yes"/>
      <point x="487" y="593"/>
      <point x="371" y="734"/>
      <point x="219" y="734" type="curve" smooth="yes"/>
      <point x="120" y="734"/>
      <point x="72" y="683"/>
      <point x="72" y="683" type="curve"/>
      <point x="77" y="676"/>
      <point x="101" y="639"/>
      <point x="105" y="632" type="curve"/>
      <point x="105" y="632"/>
      <point x="139" y="661"/>
      <point x="206" y="661" type="curve" smooth="yes"/>
      <point x="343" y="661"/>
      <point x="387" y="507"/>
    </contour>
    <contour>
      <point x="386" y="290" type="curve"/>
      <point x="378" y="168"/>
      <point x="332" y="57"/>
      <point x="246" y="57" type="curve" smooth="yes"/>
      <point x="168" y="57"/>
      <point x="139" y="129"/>
      <point x="139" y="186" type="curve" smooth="yes"/>
      <point x="139" y="262"/>
      <point x="188" y="340"/>
      <point x="266" y="340" type="curve" smooth="yes"/>
      <point x="320" y="340"/>
      <point x="353" y="323"/>
    </contour>
  </outline>
</glyph>
<glyph name="emptyset" format="2">
  <advance width="536"/>
  <unicode hex="2205"/>
  <outline>
    <contour>
      <point x="47" y="163" type="line"/>
      <point x="96" y="114" type="line"/>
      <point x="149" y="167" type="line"/>
      <point x="182" y="141"/>
      <point x="222" y="125"/>
      <point x="266" y="125" type="curve" smooth="yes"/>
      <point x="375" y="125"/>
      <point x="460" y="225"/>
      <point x="460" y="332" type="curve" smooth="yes"/>
      <point x="460" y="373"/>
      <point x="447" y="412"/>
      <point x="427" y="445" type="curve"/>
      <point x="485" y="502" type="line"/>
      <point x="436" y="551" type="line"/>
      <point x="381" y="497" type="line"/>
      <point x="349" y="523"/>
      <point x="309" y="538"/>
      <point x="266" y="538" type="curve" smooth="yes"/>
      <point x="162" y="538"/>
      <point x="72" y="445"/>
      <point x="72" y="332" type="curve" smooth="yes"/>
      <point x="72" y="290"/>
      <point x="84" y="251"/>
      <point x="103" y="219" type="curve"/>
    </contour>
    <contour>
      <point x="145" y="332" type="curve" smooth="yes"/>
      <point x="145" y="413"/>
      <point x="197" y="477"/>
      <point x="266" y="477" type="curve" smooth="yes"/>
      <point x="292" y="477"/>
      <point x="315" y="468"/>
      <point x="334" y="453" type="curve"/>
      <point x="155" y="272" type="line"/>
      <point x="149" y="290"/>
      <point x="145" y="310"/>
    </contour>
    <contour>
      <point x="193" y="215" type="curve"/>
      <point x="375" y="399" type="line"/>
      <point x="383" y="379"/>
      <point x="388" y="356"/>
      <point x="388" y="332" type="curve" smooth="yes"/>
      <point x="388" y="244"/>
      <point x="330" y="186"/>
      <point x="266" y="186" type="curve" smooth="yes"/>
      <point x="239" y="186"/>
      <point x="214" y="197"/>
    </contour>
  </outline>
</glyph>
<glyph name="baraccent" format="2">
  <advance width="401"/>
  <anchor x="200" y="316" name="_center"/>
  <outline>
    <contour>
      <point x="40" y="349" type="line"/>
      <point x="40" y="284" type="line"/>
      <point x="361" y="284" type="line"/>
      <point x="361" y="349" type="line"/>
    </contour>
  </outline>
</glyph>
<glyph name="baraccentlong" format="2">
  <advance width="751"/>
  <anchor x="376" y="316" name="_center"/>
  <outline>
    <contour>
      <point x="40" y="349" type="line"/>
      <point x="40" y="284" type="line"/>
      <point x="711" y="284" type="line"/>
      <point x="711" y="349" type="line"/>
    </contour>
  </outline>
</glyph>
<glyph name="baraccentmedium" format="2">
  <advance width="691"/>
  <anchor x="346" y="316" name="_center"/>
  <outline>
    <contour>
      <point x="40" y="349" type="line"/>
      <point x="40" y="284" type="line"/>
      <point x="651" y="284" type="line"/>
      <point x="651" y="349" type="line"/>
    </contour>
  </outline>
</glyph>
<glyph name="brevegrave.case" format="2">
  <advance width="279"/>
  <anchor x="139" y="728" name="_top"/>
  <outline>
    <contour>
      <point x="0" y="899" type="line"/>
      <point x="9" y="830"/>
      <point x="51" y="780"/>
      <point x="141" y="780" type="curve" smooth="yes"/>
      <point x="228" y="780"/>
      <point x="272" y="830"/>
      <point x="279" y="899" type="curve"/>
      <point x="229" y="899" type="line"/>
      <point x="221" y="867"/>
      <point x="187" y="849"/>
      <point x="139" y="849" type="curve" smooth="yes"/>
      <point x="91" y="849"/>
      <point x="60" y="867"/>
      <point x="49" y="899" type="curve"/>
    </contour>
    <contour>
      <point x="94" y="1009" type="line"/>
      <point x="-8" y="1009" type="line"/>
      <point x="112" y="898" type="line"/>
      <point x="170" y="898" type="line"/>
    </contour>
  </outline>
</glyph>
<glyph name="brevegrave" format="2">
  <advance width="279"/>
  <anchor x="139" y="497" name="_top"/>
  <outline>
    <contour>
      <point x="0" y="728" type="line"/>
      <point x="9" y="644"/>
      <point x="49" y="589"/>
      <point x="139" y="589" type="curve" smooth="yes"/>
      <point x="226" y="589"/>
      <point x="270" y="646"/>
      <point x="279" y="728" type="curve"/>
      <point x="229" y="728" type="line"/>
      <point x="219" y="680"/>
      <point x="187" y="658"/>
      <point x="139" y="658" type="curve" smooth="yes"/>
      <point x="91" y="658"/>
      <point x="60" y="681"/>
      <point x="49" y="728" type="curve"/>
    </contour>
    <contour>
      <point x="99" y="859" type="line"/>
      <point x="-13" y="859" type="line"/>
      <point x="107" y="727" type="line"/>
      <point x="175" y="727" type="line"/>
    </contour>
  </outline>
</glyph>
<glyph name="brevehook.case" format="2">
  <advance width="279"/>
  <anchor x="140" y="728" name="_top"/>
  <outline>
    <contour>
      <point x="279" y="899" type="curve"/>
      <point x="230" y="899" type="line"/>
      <point x="219" y="867"/>
      <point x="188" y="849"/>
      <point x="140" y="849" type="curve" smooth="yes"/>
      <point x="92" y="849"/>
      <point x="58" y="867"/>
      <point x="50" y="899" type="curve"/>
      <point x="0" y="899" type="line"/>
      <point x="7" y="830"/>
      <point x="51" y="780"/>
      <point x="138" y="780" type="curve" smooth="yes"/>
      <point x="228" y="780"/>
      <point x="270" y="830"/>
    </contour>
    <contour>
      <point x="124" y="899" type="line"/>
      <point x="157" y="899" type="line"/>
      <point x="164" y="940" type="line"/>
      <point x="216" y="943"/>
      <point x="249" y="970"/>
      <point x="249" y="1016" type="curve" smooth="yes"/>
      <point x="249" y="1062"/>
      <point x="208" y="1088"/>
      <point x="159" y="1088" type="curve" smooth="yes"/>
      <point x="129" y="1088"/>
      <point x="99" y="1079"/>
      <point x="72" y="1060" type="curve"/>
      <point x="92" y="1022" type="line"/>
      <point x="108" y="1033"/>
      <point x="127" y="1039"/>
      <point x="144" y="1039" type="curve" smooth="yes"/>
      <point x="165" y="1039"/>
      <point x="181" y="1030"/>
      <point x="181" y="1010" type="curve" smooth="yes"/>
      <point x="181" y="981"/>
      <point x="160" y="974"/>
      <point x="139" y="974" type="curve" smooth="yes"/>
      <point x="130" y="974"/>
      <point x="121" y="975"/>
      <point x="114" y="977" type="curve"/>
    </contour>
  </outline>
</glyph>
<glyph name="breveinverted" format="2">
  <advance width="279"/>
  <anchor x="140" y="497" name="_top"/>
  <outline>
    <contour>
      <point x="0" y="589" type="curve"/>
      <point x="49" y="589" type="line"/>
      <point x="60" y="636"/>
      <point x="91" y="659"/>
      <point x="139" y="659" type="curve" smooth="yes"/>
      <point x="187" y="659"/>
      <point x="219" y="637"/>
      <point x="229" y="589" type="curve"/>
      <point x="279" y="589" type="line"/>
      <point x="270" y="671"/>
      <point x="231" y="728"/>
      <point x="144" y="728" type="curve" smooth="yes"/>
      <point x="54" y="728"/>
      <point x="9" y="673"/>
    </contour>
  </outline>
</glyph>
<glyph name="brevetilde.case" format="2">
  <advance width="279"/>
  <anchor x="140" y="728" name="_top"/>
  <outline>
    <contour>
      <point x="279" y="899" type="curve"/>
      <point x="230" y="899" type="line"/>
      <point x="219" y="867"/>
      <point x="188" y="849"/>
      <point x="140" y="849" type="curve" smooth="yes"/>
      <point x="92" y="849"/>
      <point x="58" y="867"/>
      <point x="50" y="899" type="curve"/>
      <point x="0" y="899" type="line"/>
      <point x="7" y="830"/>
      <point x="51" y="780"/>
      <point x="138" y="780" type="curve" smooth="yes"/>
      <point x="228" y="780"/>
      <point x="270" y="830"/>
    </contour>
    <contour>
      <point x="278" y="1031" type="curve"/>
      <point x="231" y="1031" type="line"/>
      <point x="226" y="1016"/>
      <point x="216" y="1005"/>
      <point x="200" y="1005" type="curve" smooth="yes"/>
      <point x="160" y="1005"/>
      <point x="141" y="1044"/>
      <point x="88" y="1044" type="curve" smooth="yes"/>
      <point x="33" y="1044"/>
      <point x="2" y="998"/>
      <point x="-1" y="944" type="curve"/>
      <point x="48" y="944" type="line"/>
      <point x="50" y="957"/>
      <point x="60" y="971"/>
      <point x="77" y="971" type="curve" smooth="yes"/>
      <point x="128" y="971"/>
      <point x="141" y="932"/>
      <point x="198" y="932" type="curve" smooth="yes"/>
      <point x="250" y="932"/>
      <point x="276" y="981"/>
    </contour>
  </outline>
</glyph>
<glyph name="caron.alt" format="2">
  <advance width="185"/>
  <anchor x="-161" y="497" name="_topright"/>
  <outline>
    <contour>
      <point x="41" y="733" type="line"/>
      <point x="31" y="581" type="line"/>
      <point x="104" y="581" type="line"/>
      <point x="153" y="733" type="line"/>
    </contour>
  </outline>
</glyph>
<glyph name="caron.case" format="2">
  <advance width="291"/>
  <anchor x="143" y="728" name="_top"/>
  <outline>
    <contour>
      <point x="148" y="845" type="line"/>
      <point x="69" y="907" type="line"/>
      <point x="0" y="907" type="line"/>
      <point x="106" y="772" type="line"/>
      <point x="189" y="772" type="line"/>
      <point x="291" y="906" type="line"/>
      <point x="224" y="906" type="line"/>
    </contour>
  </outline>
</glyph>
<glyph name="circumflexacute" format="2">
  <advance width="291"/>
  <anchor x="143" y="497" name="_top"/>
  <outline>
    <contour>
      <point x="143" y="661" type="line"/>
      <point x="222" y="579" type="line"/>
      <point x="291" y="579" type="line"/>
      <point x="185" y="734" type="line"/>
      <point x="102" y="734" type="line"/>
      <point x="0" y="580" type="line"/>
      <point x="67" y="580" type="line"/>
    </contour>
    <contour>
      <point x="164" y="886" type="line"/>
      <point x="108" y="774" type="line"/>
      <point x="176" y="774" type="line"/>
      <point x="276" y="886" type="line"/>
    </contour>
  </outline>
</glyph>
<glyph name="circumflexgrave.case" format="2">
  <advance width="291"/>
  <anchor x="148" y="728" name="_top"/>
  <outline>
    <contour>
      <point x="148" y="834" type="line"/>
      <point x="224" y="773" type="line"/>
      <point x="291" y="773" type="line"/>
      <point x="189" y="907" type="line"/>
      <point x="106" y="907" type="line"/>
      <point x="0" y="772" type="line"/>
      <point x="69" y="772" type="line"/>
    </contour>
    <contour>
      <point x="127" y="1035" type="line"/>
      <point x="25" y="1035" type="line"/>
      <point x="110" y="934" type="line"/>
      <point x="180" y="934" type="line"/>
    </contour>
  </outline>
</glyph>
<glyph name="circumflexhook" format="2">
  <advance width="291"/>
  <anchor x="143" y="497" name="_top"/>
  <outline>
    <contour>
      <point x="143" y="661" type="line"/>
      <point x="222" y="579" type="line"/>
      <point x="291" y="579" type="line"/>
      <point x="185" y="734" type="line"/>
      <point x="102" y="734" type="line"/>
      <point x="0" y="580" type="line"/>
      <point x="67" y="580" type="line"/>
    </contour>
    <contour>
      <point x="127" y="764" type="line"/>
      <point x="160" y="764" type="line"/>
      <point x="167" y="805" type="line"/>
      <point x="219" y="808"/>
      <point x="252" y="835"/>
      <point x="252" y="881" type="curve" smooth="yes"/>
      <point x="252" y="927"/>
      <point x="211" y="953"/>
      <point x="162" y="953" type="curve" smooth="yes"/>
      <point x="132" y="953"/>
      <point x="102" y="944"/>
      <point x="75" y="925" type="curve"/>
      <point x="95" y="887" type="line"/>
      <point x="111" y="898"/>
      <point x="130" y="904"/>
      <point x="147" y="904" type="curve" smooth="yes"/>
      <point x="168" y="904"/>
      <point x="184" y="895"/>
      <point x="184" y="875" type="curve" smooth="yes"/>
      <point x="184" y="846"/>
      <point x="163" y="839"/>
      <point x="142" y="839" type="curve" smooth="yes"/>
      <point x="133" y="839"/>
      <point x="124" y="840"/>
      <point x="117" y="842" type="curve"/>
    </contour>
  </outline>
</glyph>
<glyph name="dblgrave.case" format="2">
  <advance width="380"/>
  <anchor x="257" y="728" name="_top"/>
  <outline>
    <contour>
      <point x="279" y="905" type="line"/>
      <point x="161" y="905" type="line"/>
      <point x="298" y="774" type="line"/>
      <point x="360" y="774" type="line"/>
    </contour>
    <contour>
      <point x="137" y="905" type="line"/>
      <point x="20" y="905" type="line"/>
      <point x="157" y="774" type="line"/>
      <point x="218" y="774" type="line"/>
    </contour>
  </outline>
</glyph>
<glyph name="dieresiscaron.case" format="2">
  <advance width="276"/>
  <anchor x="138" y="728" name="_top"/>
  <outline>
    <contour>
      <point x="113" y="838" type="curve" smooth="yes"/>
      <point x="113" y="870"/>
      <point x="88" y="895"/>
      <point x="56" y="895" type="curve" smooth="yes"/>
      <point x="25" y="895"/>
      <point x="0" y="869"/>
      <point x="0" y="838" type="curve" smooth="yes"/>
      <point x="0" y="807"/>
      <point x="25" y="781"/>
      <point x="56" y="781" type="curve" smooth="yes"/>
      <point x="87" y="781"/>
      <point x="113" y="807"/>
    </contour>
    <contour>
      <point x="276" y="838" type="curve" smooth="yes"/>
      <point x="276" y="870"/>
      <point x="251" y="895"/>
      <point x="219" y="895" type="curve" smooth="yes"/>
      <point x="188" y="895"/>
      <point x="163" y="869"/>
      <point x="163" y="838" type="curve" smooth="yes"/>
      <point x="163" y="807"/>
      <point x="188" y="781"/>
      <point x="219" y="781" type="curve" smooth="yes"/>
      <point x="250" y="781"/>
      <point x="276" y="807"/>
    </contour>
    <contour>
      <point x="141" y="1001" type="line"/>
      <point x="62" y="1063" type="line"/>
      <point x="-7" y="1063" type="line"/>
      <point x="99" y="928" type="line"/>
      <point x="182" y="928" type="line"/>
      <point x="284" y="1062" type="line"/>
      <point x="217" y="1062" type="line"/>
    </contour>
  </outline>
</glyph>
<glyph name="dieresisgrave" format="2">
  <advance width="296"/>
  <anchor x="148" y="497" name="_top"/>
  <outline>
    <contour>
      <point x="122" y="867" type="line"/>
      <point x="10" y="867" type="line"/>
      <point x="110" y="755" type="line"/>
      <point x="178" y="755" type="line"/>
    </contour>
    <contour>
      <point x="173" y="657" type="curve" smooth="yes"/>
      <point x="173" y="626"/>
      <point x="199" y="600"/>
      <point x="230" y="600" type="curve" smooth="yes"/>
      <point x="261" y="600"/>
      <point x="286" y="626"/>
      <point x="286" y="657" type="curve" smooth="yes"/>
      <point x="286" y="688"/>
      <point x="261" y="714"/>
      <point x="230" y="714" type="curve" smooth="yes"/>
      <point x="198" y="714"/>
      <point x="173" y="689"/>
    </contour>
    <contour>
      <point x="10" y="657" type="curve" smooth="yes"/>
      <point x="10" y="626"/>
      <point x="36" y="600"/>
      <point x="67" y="600" type="curve" smooth="yes"/>
      <point x="98" y="600"/>
      <point x="123" y="626"/>
      <point x="123" y="657" type="curve" smooth="yes"/>
      <point x="123" y="688"/>
      <point x="98" y="714"/>
      <point x="67" y="714" type="curve" smooth="yes"/>
      <point x="35" y="714"/>
      <point x="10" y="689"/>
    </contour>
  </outline>
</glyph>
<glyph name="dieresismacron" format="2">
  <advance width="324"/>
  <anchor x="161" y="497" name="_top"/>
  <outline>
    <contour>
      <point x="10" y="832" type="line"/>
      <point x="10" y="768" type="line"/>
      <point x="314" y="768" type="line"/>
      <point x="314" y="832" type="line"/>
    </contour>
    <contour>
      <point x="136" y="657" type="curve" smooth="yes"/>
      <point x="136" y="689"/>
      <point x="111" y="714"/>
      <point x="79" y="714" type="curve" smooth="yes"/>
      <point x="48" y="714"/>
      <point x="23" y="688"/>
      <point x="23" y="657" type="curve" smooth="yes"/>
      <point x="23" y="626"/>
      <point x="48" y="600"/>
      <point x="79" y="600" type="curve" smooth="yes"/>
      <point x="110" y="600"/>
      <point x="136" y="626"/>
    </contour>
    <contour>
      <point x="299" y="657" type="curve" smooth="yes"/>
      <point x="299" y="689"/>
      <point x="274" y="714"/>
      <point x="242" y="714" type="curve" smooth="yes"/>
      <point x="211" y="714"/>
      <point x="186" y="688"/>
      <point x="186" y="657" type="curve" smooth="yes"/>
      <point x="186" y="626"/>
      <point x="211" y="600"/>
      <point x="242" y="600" type="curve" smooth="yes"/>
      <point x="273" y="600"/>
      <point x="299" y="626"/>
    </contour>
  </outline>
</glyph>
<glyph name="dotaccent.case" format="2">
  <advance width="276"/>
  <anchor x="138" y="728" name="_top"/>
  <outline>
    <contour>
      <point x="195" y="838" type="curve" smooth="yes"/>
      <point x="195" y="870"/>
      <point x="170" y="895"/>
      <point x="138" y="895" type="curve" smooth="yes"/>
      <point x="107" y="895"/>
      <point x="82" y="869"/>
      <point x="82" y="838" type="curve" smooth="yes"/>
      <point x="82" y="807"/>
      <point x="107" y="781"/>
      <point x="138" y="781" type="curve" smooth="yes"/>
      <point x="169" y="781"/>
      <point x="195" y="807"/>
    </contour>
  </outline>
</glyph>
<glyph name="dotaccentmacron" format="2">
  <advance width="324"/>
  <anchor x="161" y="497" name="_top"/>
  <outline>
    <contour>
      <point x="10" y="832" type="line"/>
      <point x="10" y="768" type="line"/>
      <point x="314" y="768" type="line"/>
      <point x="314" y="832" type="line"/>
    </contour>
    <contour>
      <point x="217" y="657" type="curve" smooth="yes"/>
      <point x="217" y="689"/>
      <point x="192" y="714"/>
      <point x="160" y="714" type="curve" smooth="yes"/>
      <point x="129" y="714"/>
      <point x="104" y="688"/>
      <point x="104" y="657" type="curve" smooth="yes"/>
      <point x="104" y="626"/>
      <point x="129" y="600"/>
      <point x="160" y="600" type="curve" smooth="yes"/>
      <point x="191" y="600"/>
      <point x="217" y="626"/>
    </contour>
  </outline>
</glyph>
<glyph name="eight.lf" format="2">
  <advance width="572"/>
  <outline>
    <contour>
      <point x="299" y="711" type="curve" smooth="yes"/>
      <point x="197" y="711"/>
      <point x="90" y="649"/>
      <point x="90" y="532" type="curve" smooth="yes"/>
      <point x="90" y="316"/>
      <point x="409" y="333"/>
      <point x="409" y="172" type="curve" smooth="yes"/>
      <point x="409" y="90"/>
      <point x="343" y="49"/>
      <point x="277" y="49" type="curve" smooth="yes"/>
      <point x="213" y="49"/>
      <point x="149" y="89"/>
      <point x="149" y="167" type="curve" smooth="yes"/>
      <point x="149" y="220"/>
      <point x="161" y="281"/>
      <point x="274" y="342" type="curve"/>
      <point x="234" y="381" type="line"/>
      <point x="120" y="319"/>
      <point x="67" y="256"/>
      <point x="67" y="164" type="curve" smooth="yes"/>
      <point x="67" y="48"/>
      <point x="172" y="-11"/>
      <point x="279" y="-11" type="curve" smooth="yes"/>
      <point x="391" y="-11"/>
      <point x="505" y="53"/>
      <point x="505" y="182" type="curve" smooth="yes"/>
      <point x="505" y="411"/>
      <point x="182" y="376"/>
      <point x="182" y="542" type="curve" smooth="yes"/>
      <point x="182" y="617"/>
      <point x="239" y="654"/>
      <point x="295" y="654" type="curve" smooth="yes"/>
      <point x="349" y="654"/>
      <point x="403" y="619"/>
      <point x="403" y="549" type="curve" smooth="yes"/>
      <point x="403" y="496"/>
      <point x="372" y="439"/>
      <point x="291" y="401" type="curve"/>
      <point x="337" y="362" type="line"/>
      <point x="440" y="415"/>
      <point x="480" y="486"/>
      <point x="480" y="554" type="curve" smooth="yes"/>
      <point x="480" y="661"/>
      <point x="392" y="711"/>
    </contour>
  </outline>
</glyph>
<glyph name="four.lf" format="2">
  <advance width="507"/>
  <outline>
    <contour>
      <point x="279" y="698" type="line"/>
      <point x="12" y="220" type="line"/>
      <point x="12" y="180" type="line"/>
      <point x="294" y="180" type="line"/>
      <point x="294" y="0" type="line"/>
      <point x="377" y="0" type="line"/>
      <point x="377" y="180" type="line"/>
      <point x="460" y="180" type="line"/>
      <point x="478" y="249" type="line"/>
      <point x="377" y="249" type="line"/>
      <point x="377" y="698" type="line"/>
    </contour>
    <contour>
      <point x="294" y="599" type="line"/>
      <point x="294" y="249" type="line"/>
      <point x="104" y="249" type="line"/>
    </contour>
  </outline>
</glyph>
<glyph name="hook.case" format="2">
  <advance width="280"/>
  <anchor x="117" y="728" name="_top"/>
  <outline>
    <contour>
      <point x="99" y="764" type="line"/>
      <point x="135" y="764" type="line"/>
      <point x="143" y="809" type="line"/>
      <point x="200" y="813"/>
      <point x="237" y="843"/>
      <point x="237" y="893" type="curve" smooth="yes"/>
      <point x="237" y="944"/>
      <point x="191" y="972"/>
      <point x="137" y="972" type="curve" smooth="yes"/>
      <point x="105" y="972"/>
      <point x="71" y="962"/>
      <point x="42" y="942" type="curve"/>
      <point x="64" y="900" type="line"/>
      <point x="81" y="912"/>
      <point x="102" y="918"/>
      <point x="121" y="918" type="curve" smooth="yes"/>
      <point x="144" y="918"/>
      <point x="162" y="908"/>
      <point x="162" y="886" type="curve" smooth="yes"/>
      <point x="162" y="855"/>
      <point x="139" y="847"/>
      <point x="115" y="847" type="curve" smooth="yes"/>
      <point x="106" y="847"/>
      <point x="96" y="848"/>
      <point x="88" y="850" type="curve"/>
    </contour>
  </outline>
</glyph>
<glyph name="hook" format="2">
  <advance width="280"/>
  <anchor x="117" y="497" name="_top"/>
  <outline>
    <contour>
      <point x="99" y="543" type="line"/>
      <point x="135" y="543" type="line"/>
      <point x="143" y="588" type="line"/>
      <point x="200" y="592"/>
      <point x="237" y="622"/>
      <point x="237" y="672" type="curve" smooth="yes"/>
      <point x="237" y="723"/>
      <point x="191" y="751"/>
      <point x="137" y="751" type="curve" smooth="yes"/>
      <point x="105" y="751"/>
      <point x="71" y="741"/>
      <point x="42" y="721" type="curve"/>
      <point x="64" y="679" type="line"/>
      <point x="81" y="691"/>
      <point x="102" y="697"/>
      <point x="121" y="697" type="curve" smooth="yes"/>
      <point x="144" y="697"/>
      <point x="162" y="687"/>
      <point x="162" y="665" type="curve" smooth="yes"/>
      <point x="162" y="634"/>
      <point x="139" y="626"/>
      <point x="115" y="626" type="curve" smooth="yes"/>
      <point x="106" y="626"/>
      <point x="96" y="627"/>
      <point x="88" y="629" type="curve"/>
    </contour>
  </outline>
</glyph>
<glyph name="horn" format="2">
  <advance width="249"/>
  <anchor x="-32" y="497" name="_topright"/>
  <outline>
    <contour>
      <point x="20" y="496" type="curve"/>
      <point x="20" y="438" type="line"/>
      <point x="161" y="402"/>
      <point x="233" y="508"/>
      <point x="229" y="608" type="curve"/>
      <point x="130" y="608" type="line"/>
      <point x="140" y="523"/>
      <point x="95" y="466"/>
    </contour>
  </outline>
</glyph>
<glyph name="hungarumlaut.case" format="2">
  <advance width="380"/>
  <anchor x="123" y="728" name="_top"/>
  <outline>
    <contour>
      <point x="101" y="905" type="line"/>
      <point x="20" y="774" type="line"/>
      <point x="82" y="774" type="line"/>
      <point x="219" y="905" type="line"/>
    </contour>
    <contour>
      <point x="243" y="905" type="line"/>
      <point x="162" y="774" type="line"/>
      <point x="223" y="774" type="line"/>
      <point x="360" y="905" type="line"/>
    </contour>
  </outline>
</glyph>
<glyph name="macronbelow" format="2">
  <advance width="304"/>
  <anchor x="152" y="0" name="bottom"/>
  <outline>
    <contour>
      <point x="0" y="-91" type="line"/>
      <point x="0" y="-155" type="line"/>
      <point x="304" y="-155" type="line"/>
      <point x="304" y="-91" type="line"/>
    </contour>
  </outline>
</glyph>
<glyph name="nine.lf" format="2">
  <advance width="562"/>
  <outline>
    <contour>
      <point x="285" y="709" type="curve" smooth="yes"/>
      <point x="138" y="709"/>
      <point x="61" y="592"/>
      <point x="61" y="482" type="curve" smooth="yes"/>
      <point x="61" y="384"/>
      <point x="123" y="291"/>
      <point x="251" y="291" type="curve" smooth="yes"/>
      <point x="302" y="291"/>
      <point x="364" y="310"/>
      <point x="415" y="360" type="curve"/>
      <point x="415" y="414" type="line"/>
      <point x="368" y="377"/>
      <point x="318" y="359"/>
      <point x="274" y="359" type="curve" smooth="yes"/>
      <point x="195" y="359"/>
      <point x="157" y="427"/>
      <point x="157" y="497" type="curve" smooth="yes"/>
      <point x="157" y="571"/>
      <point x="199" y="646"/>
      <point x="277" y="646" type="curve" smooth="yes"/>
      <point x="381" y="646"/>
      <point x="406" y="529"/>
      <point x="406" y="399" type="curve" smooth="yes"/>
      <point x="406" y="202"/>
      <point x="346" y="46"/>
      <point x="177" y="46" type="curve" smooth="yes"/>
      <point x="154" y="46"/>
      <point x="129" y="49"/>
      <point x="102" y="55" type="curve"/>
      <point x="89" y="5" type="line"/>
      <point x="125" y="-4"/>
      <point x="159" y="-9"/>
      <point x="190" y="-9" type="curve" smooth="yes"/>
      <point x="392" y="-9"/>
      <point x="498" y="170"/>
      <point x="498" y="409" type="curve" smooth="yes"/>
      <point x="498" y="567"/>
      <point x="450" y="709"/>
    </contour>
  </outline>
</glyph>
<glyph name="periodcentered.loclCAT" format="2">
  <advance width="293"/>
  <anchor x="-24" y="341" name="_center"/>
  <outline>
    <contour>
      <point x="213" y="260" type="curve" smooth="yes"/>
      <point x="213" y="296"/>
      <point x="183" y="327"/>
      <point x="147" y="327" type="curve" smooth="yes"/>
      <point x="110" y="327"/>
      <point x="81" y="297"/>
      <point x="81" y="260" type="curve" smooth="yes"/>
      <point x="81" y="224"/>
      <point x="111" y="195"/>
      <point x="147" y="195" type="curve" smooth="yes"/>
      <point x="183" y="195"/>
      <point x="213" y="224"/>
    </contour>
  </outline>
</glyph>
<glyph name="ringacute" format="2">
  <advance width="282"/>
  <anchor x="141" y="497" name="_top"/>
  <outline>
    <contour>
      <point x="141" y="758" type="curve" smooth="yes"/>
      <point x="87" y="758"/>
      <point x="42" y="712"/>
      <point x="42" y="658" type="curve" smooth="yes"/>
      <point x="42" y="604"/>
      <point x="87" y="559"/>
      <point x="141" y="559" type="curve" smooth="yes"/>
      <point x="195" y="559"/>
      <point x="240" y="604"/>
      <point x="240" y="658" type="curve" smooth="yes"/>
      <point x="240" y="713"/>
      <point x="196" y="758"/>
    </contour>
    <contour>
      <point x="141" y="706" type="curve" smooth="yes"/>
      <point x="167" y="706"/>
      <point x="189" y="684"/>
      <point x="189" y="658" type="curve" smooth="yes"/>
      <point x="189" y="632"/>
      <point x="167" y="610"/>
      <point x="141" y="610" type="curve" smooth="yes"/>
      <point x="114" y="610"/>
      <point x="93" y="631"/>
      <point x="93" y="658" type="curve" smooth="yes"/>
      <point x="93" y="685"/>
      <point x="114" y="706"/>
    </contour>
    <contour>
      <point x="186" y="939" type="line"/>
      <point x="110" y="807" type="line"/>
      <point x="168" y="807" type="line"/>
      <point x="288" y="939" type="line"/>
    </contour>
  </outline>
</glyph>
<glyph name="slashlongcomb.case" format="2">
  <anchor x="362" y="361" name="_center"/>
  <outline>
    <contour>
      <point x="126" y="-57" type="line"/>
      <point x="643" y="736" type="line"/>
      <point x="589" y="767" type="line"/>
      <point x="74" y="-24" type="line"/>
    </contour>
  </outline>
</glyph>
<glyph name="three.lf" format="2">
  <advance width="494"/>
  <outline>
    <contour>
      <point x="263" y="710" type="curve" smooth="yes"/>
      <point x="191" y="710"/>
      <point x="118" y="683"/>
      <point x="52" y="631" type="curve"/>
      <point x="96" y="574" type="line"/>
      <point x="147" y="618"/>
      <point x="204" y="646"/>
      <point x="254" y="646" type="curve" smooth="yes"/>
      <point x="303" y="646"/>
      <point x="331" y="613"/>
      <point x="331" y="568" type="curve" smooth="yes"/>
      <point x="331" y="503"/>
      <point x="271" y="414"/>
      <point x="123" y="368" type="curve"/>
      <point x="146" y="315" type="line"/>
      <point x="168" y="323"/>
      <point x="192" y="328"/>
      <point x="214" y="328" type="curve" smooth="yes"/>
      <point x="295" y="328"/>
      <point x="337" y="273"/>
      <point x="337" y="211" type="curve" smooth="yes"/>
      <point x="337" y="133"/>
      <point x="269" y="44"/>
      <point x="129" y="44" type="curve" smooth="yes"/>
      <point x="108" y="44"/>
      <point x="86" y="46"/>
      <point x="63" y="50" type="curve"/>
      <point x="50" y="0" type="line"/>
      <point x="81" y="-8"/>
      <point x="112" y="-12"/>
      <point x="143" y="-12" type="curve" smooth="yes"/>
      <point x="328" y="-12"/>
      <point x="433" y="116"/>
      <point x="433" y="225" type="curve" smooth="yes"/>
      <point x="433" y="301"/>
      <point x="381" y="368"/>
      <point x="271" y="375" type="curve"/>
      <point x="371" y="418"/>
      <point x="423" y="502"/>
      <point x="423" y="575" type="curve" smooth="yes"/>
      <point x="423" y="648"/>
      <point x="371" y="710"/>
    </contour>
  </outline>
</glyph>
<glyph name="two.lf" format="2">
  <advance width="536"/>
  <outline>
    <contour>
      <point x="453" y="526" type="curve" smooth="yes"/>
      <point x="453" y="646"/>
      <point x="377" y="709"/>
      <point x="277" y="709" type="curve" smooth="yes"/>
      <point x="208" y="709"/>
      <point x="128" y="678"/>
      <point x="62" y="614" type="curve"/>
      <point x="107" y="561" type="line"/>
      <point x="162" y="615"/>
      <point x="217" y="640"/>
      <point x="264" y="640" type="curve" smooth="yes"/>
      <point x="320" y="640"/>
      <point x="358" y="603"/>
      <point x="358" y="515" type="curve" smooth="yes"/>
      <point x="358" y="378"/>
      <point x="280" y="236"/>
      <point x="51" y="57" type="curve"/>
      <point x="51" y="-1" type="line"/>
      <point x="455" y="-1" type="line"/>
      <point x="475" y="68" type="line"/>
      <point x="166" y="68" type="line"/>
      <point x="341" y="206"/>
      <point x="453" y="375"/>
    </contour>
  </outline>
</glyph>
<glyph name="zero.lf" format="2">
  <advance width="620"/>
  <outline>
    <contour>
      <point x="316" y="709" type="curve" smooth="yes"/>
      <point x="150" y="709"/>
      <point x="69" y="587"/>
      <point x="69" y="348" type="curve" smooth="yes"/>
      <point x="69" y="110"/>
      <point x="139" y="-13"/>
      <point x="304" y="-13" type="curve" smooth="yes"/>
      <point x="469" y="-13"/>
      <point x="551" y="110"/>
      <point x="551" y="348" type="curve" smooth="yes"/>
      <point x="551" y="586"/>
      <point x="481" y="709"/>
    </contour>
    <contour>
      <point x="310" y="646" type="curve" smooth="yes"/>
      <point x="422" y="646"/>
      <point x="460" y="547"/>
      <point x="460" y="348" type="curve" smooth="yes"/>
      <point x="460" y="149"/>
      <point x="422" y="50"/>
      <point x="310" y="50" type="curve" smooth="yes"/>
      <point x="199" y="50"/>
      <point x="159" y="149"/>
      <point x="159" y="348" type="curve" smooth="yes"/>
      <point x="159" y="546"/>
      <point x="200" y="646"/>
    </contour>
  </outline>
</glyph>
<glyph name="zero.tf.zero" format="2">
  <advance width="600"/>
  <outline>
    <contour>
      <point x="121" y="140" type="line"/>
      <point x="161" y="89" type="line"/>
      <point x="475" y="570" type="line"/>
      <point x="433" y="620" type="line"/>
    </contour>
    <component base="zero.lf" xOffset="-10"/>
  </outline>
</glyph>
